<svg width="48" height="48" viewBox="0 0 48 48" fill="none" xmlns="http://www.w3.org/2000/svg"><path d="M25.2435 27.5996l1.9037 5.6128-2.6592-.2061-1.8742 2.306.4121.4121 4.5432 4.5432 3.248-3.248 1.2854-1.2854.5201-.5201 1.9625-1.9625c-.5397-.9027-1.3345-1.6387-2.2962-2.1195l-6.0249-2.9732c-.3434-.1766-.677-.363-1.0205-.5593zM12.7718 33.0063l-2.6592.2061 1.9429-5.6128-1.207.6182-5.8777 2.9045c-1.57.7752-2.6886 2.2471-3.0026 3.9741l-.9616 5.3184c-.0687.3925.2256.7556.628.7556H8.68l5.9169-5.917-1.8251-2.2471zM33.4076 22.2617c.6869.3336 1.4228.5004 2.1784.628.5887.0883.6084.1177.6084.7261 0 .2747 0 .5495.0098.8341 0 .3532.1766.5495.5299.5593.4023.0098.8144.0098 1.2265 0 .3336-.0098.5005-.1865.5103-.5299 0-.3827.0196-.7556 0-1.1383-.0197-.3826.1472-.5789.52-.677.8537-.2355 1.5799-.6869 2.1392-1.3738 1.5504-1.884.9518-4.6413-1.2364-5.8581-.6869-.3827-1.4228-.6672-2.149-.9714-.4219-.1766-.8242-.3827-1.1775-.6574-.6967-.5594-.5691-1.4621.2552-1.8252.2257-.0981.471-.1374.7261-.1472.9518-.049 1.8546.1178 2.7083.5397.4317.2061.5691.1374.7163-.3042.157-.471.2845-.9518.4219-1.4228.0883-.3238-.0196-.5299-.3238-.6672-.5495-.2454-1.1186-.422-1.7074-.5103-.7752-.1177-.7752-.1276-.7752-.9027 0-1.099 0-1.099-1.1088-1.099h-.4808c-.5103.0196-.5986.1079-.6182.6181-.0098.2355 0 .4612 0 .6967 0 .687-.0098.6771-.6673.9224-1.5994.579-2.5807 1.6681-2.6886 3.405-.0981 1.5405.7065 2.5807 1.9723 3.3362.7752.471 1.6387.7458 2.463 1.1088.3238.1374.628.3042.9027.5299.7948.6575.6477 1.7467-.2943 2.1588-.5005.2159-1.0402.2747-1.5799.206-.8438-.1079-1.6485-.3238-2.4138-.7261-.4416-.2355-.579-.1668-.7262.314-.1275.4121-.2453.8341-.363 1.256-.1767.579-.1178.7163.4219.9715z" fill="#54189F"/><path d="M13.8412 24.4695v1.7761l2.5219 7.3594a3.9754 3.9754 0 0 1 2.2078-.6672c.834 0 1.6387.2551 2.3059.7359l2.5317-7.3889-.0099-.1275v-1.727s5.4558.1668 8.0463-2.4728c0 0-3.768-1.0695-3.0909-7.9285.677-6.859-.8439-12.874-6.3585-12.3638 0 0-2.3845-2.875-7.1436-1.0696-1.6289.6182-6.015 2.1882-5.7894 11.6868.2257 9.4985-3.3755 9.5574-3.3755 9.5574s1.8546 2.6788 8.1542 2.6297zM46.1736 26.8738h-.0982c-2.1293.0981-4.2586.1962-6.3879.3042-.3337.0196-.6575.0294-.8439.4317-.1865.3925.0294.6182.2551.8439.6575.6574 1.2953 1.3149 1.9625 1.9625l-.7261.7261-5.8875 5.8876-.5201.52-1.2854 1.2855-5.0731 5.073-.2944-.2943-6.0641-6.0642-1.2953-1.2952-.3533-.3533a1.4056 1.4056 0 0 0-.991-.4121c-.3631 0-.7163.1374-.9911.4121l-.3434.3533L9.877 43.614c-.5495.5495-.5495 1.4424 0 1.9821l.3532.3533c.2748.2747.6378.4121.9911.4121.3631 0 .7163-.1374.9911-.4121l6.3585-6.3586.2944.2944 6.0641 6.0642 1.2854 1.2854.3533.3533c.2747.2747.6378.4121.9911.4121.363 0 .7163-.1374.991-.4121l.3533-.3533 6.0641-6.0641 1.2855-1.2855.52-.5201 5.8876-5.8875.7163-.7163 1.9232 1.9036c.1767.1767.3533.3729.6084.3729.0981 0 .1963-.0294.314-.0883.3827-.2061.471-.5397.4808-.9224.0883-2.0802.1963-4.1507.2944-6.2309.0491-.6379-.2159-.9224-.8242-.9224z" fill="#54189F"/></svg>