<svg width="48" height="38" viewBox="0 0 48 38" fill="none" xmlns="http://www.w3.org/2000/svg"><path d="M45.2781 11.6097c.3448.3448.8966.3448 1.2317 0l1.2317-1.2318c.3449-.3448.3449-.8967 0-1.2317l-2.7886-2.7886c-.3449-.3449-.8967-.3449-1.2317 0l-1.2317 1.2317c-.3449.345-.3449.8967 0 1.2317l.1182.1183-.8671.8671c-2.1876-1.7342-4.8382-2.8871-7.7451-3.2222V5.0076h.9559c.4828 0 .8671-.3941.8671-.867v-2.562c0-.4829-.3942-.8672-.8671-.8672h-5.5378c-.4829 0-.8672.3942-.8672.8671v2.562c0 .4829.3942.8671.8672.8671h.9558v1.5766c-2.9069.345-5.5674 1.4978-7.7451 3.2222l-.8671-.8671.1182-.1182c.3449-.345.3449-.8967 0-1.2318l-1.2317-1.2317c-.3449-.3449-.8967-.3449-1.2317 0l-2.7886 2.7886c-.3449.3449-.3449.8967 0 1.2317l1.2317 1.2318c.3449.3448.8967.3448 1.2317 0l.1183-.1183.8671.8671c-2.0693 2.6211-3.301 5.932-3.301 9.5187 0 8.494 6.9173 15.4113 15.4113 15.4113 8.4939 0 15.4112-6.9173 15.4112-15.4113 0-3.5867-1.2416-6.8976-3.301-9.5187l.8671-.8671.1183.1183zM32.1825 33.7214c-6.5232 0-11.8344-5.3111-11.8344-11.8343 0-6.5232 5.3112-11.8343 11.8344-11.8343 6.5231 0 11.8343 5.3111 11.8343 11.8343 0 6.5232-5.3112 11.8343-11.8343 11.8343zM6.257 26.016c-.8474 0-1.5273.6897-1.5273 1.5273 0 .8474.6898 1.5273 1.5274 1.5273h8.287c.1675 0 .3153-.0295.4631-.0788-.3942-.9558-.7193-1.9511-.946-2.9857H6.2571v.0099zM14.9974 14.8022c-.138-.0394-.2956-.0788-.4533-.0788H1.5273C.68 14.7234 0 15.4131 0 16.2507c0 .8474.6898 1.5273 1.5273 1.5273h12.5241c.2267-1.005.542-2.0101.946-2.9758zM13.5982 21.8871c0-.5124.0295-1.0149.0689-1.5175H3.6557c-.8474 0-1.5273.6898-1.5273 1.5274 0 .8375.6898 1.5273 1.5273 1.5273h10.0016c-.0296-.5026-.0591-1.0149-.0591-1.5372z" fill="#D90E30"/><path d="M39.6217 17.4825c-.2562-.4237-.7883-.5912-1.2317-.3646l-5.3309 2.6112c-.6602-.266-1.4288-.2365-2.089.1478-1.1134.6602-1.4879 2.0989-.8277 3.2124.6602 1.1134 2.0989 1.4879 3.2124.8277a2.3442 2.3442 0 0 0 1.1331-1.754l4.8579-3.4192c.4139-.2859.5321-.8279.2759-1.2613zm-6.4542 4.6607c-.1478.5518-.7094.877-1.2514.739-.5518-.1478-.877-.7094-.739-1.2514.1478-.5518.7094-.877 1.2514-.739.5518.138.877.7094.739 1.2514zM35.5129 16.0143c.4631.266 1.0544.0985 1.3106-.3646.266-.4631.0985-1.0543-.3646-1.3105-.4632-.2661-1.0445-.0986-1.3106.3645-.1773.3154-.1576.6799.0099.9657.0887.1281.2069.2563.3547.3449zM32.1231 15.1273c.5321 0 .9558-.4336.9558-.9657s-.4335-.9558-.9656-.9558-.9558.4336-.9558.9657c0 .1773.0492.3449.1281.4828.1675.2859.4828.4829.8375.473zM32.2512 28.6665c-.5321.0099-.9558.4434-.9558.9755 0 .1774.0493.335.1281.473.1675.2858.4828.4828.8376.473.5321-.0099.9558-.4434.9459-.9755.0099-.5125-.4237-.946-.9558-.946zM35.6212 27.7306c-.4533.266-.6109.8572-.335 1.3105.266.4631.8572.6109 1.3204.335.4533-.266.6109-.8572.335-1.3105-.2759-.4534-.8671-.6012-1.3204-.335zM39.3854 24.8729c-.4631-.2562-1.0544-.0986-1.3106.3646-.1773.3153-.1576.67.0099.9656a.918.918 0 0 0 .3547.3449c.4631.2661 1.0544.0985 1.3106-.3646.2562-.4631.0985-1.0543-.3646-1.3105zM25.4029 21.9758c0-.5321-.4434-.9558-.9657-.9558-.532.0099-.9558.4434-.9558.9756 0 .1773.0493.335.1281.4729.1676.2858.4829.4829.8376.473.542-.0001.9657-.4336.9558-.9657zM25.0384 25.0106c-.4532.2661-.6109.8573-.335 1.3105.266.4533.8573.611 1.3204.3351.4533-.2661.6011-.8573.335-1.3204-.2759-.4434-.8671-.601-1.3204-.3252zM38.9518 21.8377c0 .1774.0493.3351.138.4829.1675.2857.4828.4729.8375.4729.5321 0 .9558-.4434.9558-.9656 0-.5321-.4335-.9558-.9656-.9558-.542 0-.9755.4434-.9657.9656zM24.9691 18.9506c.4632.266 1.0544.0985 1.3106-.3646.2562-.4631.0985-1.0445-.3745-1.3105a.9668.9668 0 0 0-1.3105.3645c-.1675.3055-.1577.6701.0098.9657.0887.138.207.2563.3646.3449zM28.7235 16.0833s.0099 0 .0099-.0099c.0098 0 .0098 0 .0098-.0099h.0099c.4532-.266.601-.8572.335-1.3105-.2661-.4631-.8573-.6109-1.3204-.3449 0 0-.0099 0-.0099.0099-.0098 0-.0098.0098-.0197.0098-.4532.2661-.6109.8573-.335 1.3106.2759.4632.8671.611 1.3204.3449zM28.8517 27.7991c-.4631-.266-1.0544-.0985-1.3106.3646-.1773.3153-.1576.6799.0099.9657.0788.1379.2069.266.3547.3547.4632.2562 1.0544.0887 1.3106-.3646.266-.473.0985-1.0543-.3646-1.3204z" fill="#D90E30"/></svg>