<svg width="48" height="34" viewBox="0 0 48 34" fill="none" xmlns="http://www.w3.org/2000/svg"><path fill-rule="evenodd" clip-rule="evenodd" d="M43.1847 3.6623L46.9488.4578 48 .9495l-.1187 10.0883-.6358.6273h-2.9587l-1.1021 1.5006v20.2359H0V0h43.1847v3.6623zm-1.2801-2.3568H1.2716v2.7637h40.633V1.3055zm-.6782 4.0439H1.2716V32.113h3.5945l13.1996-17.8876.1696.0847.161-.3475h5.0866l.5171.2628 5.8834 8.0113 7.757-10.5377h-2.1448l-.4154-1.1275 6.1462-5.2222zm-21.55 9.8933l7.7146 10.4359 1.6955-2.3653-5.9343-8.0706h-3.4758zm-1.1614.5849L6.5955 31.935l3.4419.0085 10.1731-13.7591-1.6955-2.3568zM11.5125 32.113h30.3921V14.9036l-9.0201 12.3348-.5171.2628h-5.0866l-.195-.3815-.161.1187-5.8835-7.9943-9.5288 12.8689zm32.4522-21.7365h2.645l.0678-8.0367-9.4779 8.0537h1.6955l.5171 1.0173L28.544 26.2211h3.4758l11.4277-15.5818.5172-.2628zM2.1279 1.9836h1.314v1.2801h-1.314v-1.28zm2.272 0h1.314v1.2801h-1.314v-1.28zm3.5946 0h-1.314v1.2801h1.314v-1.28z" fill="#000"/></svg>