<svg width="36" height="39" viewBox="0 0 36 39" fill="none" xmlns="http://www.w3.org/2000/svg"><path fill-rule="evenodd" clip-rule="evenodd" d="M25.6558 23.5299h.0781a.572.572 0 0 1 .5656.5722v12.8214a.5726.5726 0 0 1-.169.4031 3.5956 3.5956 0 0 1-5.0714 0 .5718.5718 0 0 1-.169-.4031V24.1086a.5721.5721 0 0 1 .5721-.5722h.078V21.846A11.014 11.014 0 0 1 23.5948.0002a11.014 11.014 0 0 1 2.061 21.8458v1.6839zm-.4941 1.1378h-3.1273V35.324h3.1273V24.6677zM14.4641 7.2682a9.863 9.863 0 0 0-.7389 3.7849 9.863 9.863 0 0 0 9.8566 9.8436 9.8758 9.8758 0 0 0 9.6227-9.8728 9.876 9.876 0 0 0-9.6227-9.8729 9.863 9.863 0 0 0-9.1177 6.1172zm8.6772 14.7499c-.1528-.0113-.3048-.0226-.4568-.0226v1.5344h1.814v-1.5344c-.2926.0455-.5916.0455-.8907.0455-.1569 0-.3121-.0115-.4665-.0229zm.4567 15.2153c.571 0 1.124-.1993 1.5637-.5635v-.2016h-3.1273v.2016a2.4512 2.4512 0 0 0 1.5636.5635zm6.0889-20.1208a8.6084 8.6084 0 0 0-6.0857-14.6939 8.6049 8.6049 0 0 0-6.0846 14.6897 8.6048 8.6048 0 0 0 6.0846 2.5204 8.5374 8.5374 0 0 0 6.0857-2.5162zm-6.0857 1.3784a7.477 7.477 0 0 1 0-14.954 7.5096 7.5096 0 0 1 2.0741.2926l-4.3106 4.3106.8062.8062 4.6682-4.6682a7.3937 7.3937 0 0 1 1.3654.9233l-7.0024 7.0023.8062.7997 7.0544-7.0544A7.457 7.457 0 0 1 27.7 17.2674a7.4577 7.4577 0 0 1-4.0857 1.2237h-.0131zm-20.929 4.2196H6.996l1.0078 2.9128 1.0792-.3706-3.7125-10.6824H4.2912L.5852 25.2528l1.0793.3706 1.0077-2.9128zm2.1586-6.2222l1.762 5.0844h-3.524l1.762-5.0844zm7.6525-1.8074h-1.5214v1.1378h1.5214V14.681zm-1.5214 4.3822v-1.1378h3.0428v1.1378h-3.0428zm6.2417 2.1001h-6.2417v1.1378h6.2417v-1.1378zm-6.2417 3.2379h8.9009v1.1378h-8.9009v-1.1378zm8.9008 3.2378H0v1.1378h19.8627V27.639zM0 30.8833h19.8627v1.1378H0v-1.1378zM36 14.681h-1.3003v1.1378H36V14.681zm-2.8217 3.2444h2.8153v1.1378h-2.8153v-1.1378zm2.8152 3.2379h-6.9958v1.1378h6.9958v-1.1378zm-8.5107 3.2379h8.5173v1.1378h-8.5173v-1.1378zm8.5173 3.2378h-8.5173v1.1378h8.5173V27.639zm-8.5173 3.2443h8.5173v1.1378h-8.5173v-1.1378z" fill="#000"/></svg>