<svg width="50" height="34" viewBox="0 0 50 34" fill="none" xmlns="http://www.w3.org/2000/svg"><path fill-rule="evenodd" clip-rule="evenodd" d="M30.1962 26.4091a12.6751 12.6751 0 0 1-9.5538-4.3426c.0674-.3744.1423-.7487.2246-1.1081h.045c.4417.0374.861-.2172 1.3027-.7488a10.287 10.287 0 0 0 10.5526 3.4654 10.2878 10.2878 0 0 0 7.5517-8.1449l-.9584-.1722a9.3142 9.3142 0 0 1-16.6367 3.9158 3.2503 3.2503 0 0 0 .1497-1.7071 1.6326 1.6326 0 0 0-.6589-1.138 1.278 1.278 0 0 0-.4118-.1647 5.8908 5.8908 0 0 0 .1123-.4643c.1049-.5241.1872-1.3626.1872-1.4001v-.0449a11.8887 11.8887 0 0 0-.6289-3.9608 9.3142 9.3142 0 0 1 17.8796 1.6397l.9584-.1722a10.2952 10.2952 0 0 0-19.3696-2.6879 7.286 7.286 0 0 0-1.6172-2.0665 12.728 12.728 0 0 1 18.8036-3.3648 12.7284 12.7284 0 0 1 4.1074 5.7982l.9209-.322A13.6784 13.6784 0 0 0 31.7027.08a13.6792 13.6792 0 0 0-13.1492 6.4654 7.3001 7.3001 0 0 0-4.0207-1.138 8.049 8.049 0 0 0-2.0066.247c-3.4441.8835-5.5705 4.1105-5.5705 8.7152a7.8244 7.8244 0 0 0 .2021 1.6172l.0824.292a1.092 1.092 0 0 0-.4567.1573 1.632 1.632 0 0 0-.6589 1.138 3.2795 3.2795 0 0 0 .6214 2.5756c.4493.5841.8835.8536 1.3328.8236.1048.5766.262 1.2354.4193 1.8868a3.3164 3.3164 0 0 0 1.6846 2.0291v1.5723L1.8044 29.711A2.815 2.815 0 0 0 0 32.3465v.569a.4868.4868 0 0 0 .8308.3442.4868.4868 0 0 0 .1426-.3442v-.569a1.842 1.842 0 0 1 1.183-1.7295l7.1653-2.7853v1.2728l5.2111 2.366 4.8143-2.381v-1.3551l7.7044 2.8975a1.8648 1.8648 0 0 1 1.2055 1.7371v.5615a.4867.4867 0 1 0 .9733 0v-.5615a2.845 2.845 0 0 0-1.8643-2.6131l-8.0488-2.9949-.6664-.2471v-1.6322l.1947-.0898a2.913 2.913 0 0 0 1.5798-1.5424 13.6715 13.6715 0 0 0 18.8901.6636 13.6727 13.6727 0 0 0 3.8188-5.725l-.8985-.322a12.728 12.728 0 0 1-12.0395 8.543zm-10.0854-6.4765c-.1947.6739-.4118 1.8569-.599 2.9126-.1123.6439-1.153 1.1156-1.4974 1.2354a.4858.4858 0 0 0-.2441.1772.4858.4858 0 0 0-.0928.287v2.2462a.486.486 0 0 0 .3144.4567l.3669.1422v1.0932l-3.8559 1.9017-4.163-1.9167v-1.0183l.5167-.2021a.4873.4873 0 0 0 .3144-.4567v-2.2762a.4868.4868 0 0 0-.3594-.4717 2.2976 2.2976 0 0 1-1.3552-1.4525 19.8944 19.8944 0 0 1-.539-2.7703.4793.4793 0 0 0-.5017-.4642.4869.4869 0 0 0-.4717.4867v.0748a1.6078 1.6078 0 0 1-.4118-.4118 2.3207 2.3207 0 0 1-.4492-1.7295.996.996 0 0 1 .2096-.5466c.1348-.0823.322.1348.322.1348a.4867.4867 0 0 0 .846-.4493s-.2246-.7487-.3594-1.2354a6.7375 6.7375 0 0 1-.1647-1.3552c0-3.6837 1.7296-7.9814 6.6038-7.9814s6.5963 4.2827 6.6038 7.959c0 .1348-.0824.8461-.1722 1.2728a11.7839 11.7839 0 0 1-.3295 1.168.4793.4793 0 0 0 .2022.5616.494.494 0 0 0 .6064-.0524.2172.2172 0 0 1 .2771 0 .9885.9885 0 0 1 .2171.554 2.3217 2.3217 0 0 1-.4492 1.7296 1.7444 1.7444 0 0 1-.4268.4268.487.487 0 0 0-.4717-.3669.487.487 0 0 0-.4717.3669l-.015-.03zm-.2096-5.7354a3.175 3.175 0 0 0-2.8976-2.4109.667.667 0 0 1-.1872 0 2.4036 2.4036 0 0 1 .4792-.9808.4864.4864 0 0 0-.0898-.6814c-.8086-.6214-2.3211.6814-3.1522 1.4975-2.6334 2.6334-4.2092 2.2951-4.4176 2.2503-.012-.0025-.0194-.0042-.0223-.0042a.4868.4868 0 0 0-.3669.8985c.2172.0899 2.2462.8012 5.4957-2.4783a8.454 8.454 0 0 1 1.1904-1.0257 1.2655 1.2655 0 0 0 0 .9434 1.0636 1.0636 0 0 0 1.0558.5391c1.4465 0 1.9079 1.509 1.9578 1.6725l.0038.0121.2097.7487a.4861.4861 0 0 0 .4717.3519h.1422a.4869.4869 0 0 0 .3369-.599l-.2096-.7337zm16.9961-2.1487l-.9434.2321v.0074a5.93 5.93 0 1 0 .0374 2.673l.9509.2022a6.9032 6.9032 0 1 1-.0449-3.1147zm-6.7011-.891a2.5314 2.5314 0 0 1 2.366 1.6023l.9059-.3594a3.519 3.519 0 1 0 0 2.5382l-.9134-.3444a2.5455 2.5455 0 0 1-3.421 1.4342 2.5466 2.5466 0 0 1-1.5043-2.1644 2.5457 2.5457 0 0 1 2.5369-2.7065h.0299zm12.7883-.7562h7.0081l-3.2645 3.3019 3.272 3.3244h-7.0156l-2.8152-2.8377h-9.9731v-.9733h9.9731l2.8152-2.8153zm2.8152 2.8153l1.8419-1.8419H46.204l-1.8418 1.8419h1.4375zm-.9733-1.8419h-1.4376l-1.8419 1.8419h1.4376l1.8419-1.8419zm-3.2795 2.8152l1.8419 1.8419h1.4376l-1.8419-1.8419h-1.4376zm4.6571 1.8419h1.4376l-1.8419-1.8419h-1.4375l1.8418 1.8419z" fill="#1E132C"/></svg>