<svg width="43" height="34" viewBox="0 0 43 34" fill="none" xmlns="http://www.w3.org/2000/svg"><path fill-rule="evenodd" clip-rule="evenodd" d="M0 0v33.2512h43V0H0zm1.2727 1.2727h40.4546v2.7575H1.2727V1.2727zM41.7273 31.987H1.2727V5.2944h40.4546V31.987zM3.4278 1.977H2.1212v1.2727h1.3066V1.977zm.9589 0h1.3066v1.2727H4.3867V1.977zm3.572 0H6.652v1.2727h1.3066V1.977zM21.5 21.4238l-5.2605 2.766.9927-5.8629-4.2423-4.149 5.8798-.8484 2.6303-5.3284 2.6047 5.3369 5.8799.8484-4.2423 4.149 1.0181 5.8544-5.2604-2.766zm-1.7818-6.9319l-3.9963.5769 2.8848 2.8169-.6788 3.9793 3.5721-1.8751 3.572 1.8751-.6788-3.9793 2.8848-2.8169-3.9963-.5769-1.7817-3.6145-1.7818 3.6145zm11.6154 6.0239l-.6279 3.6738 3.2921-1.6969 3.292 1.6969-.6279-3.6738 2.6557-2.6302-3.6823-.5346-1.646-3.3344-1.646 3.3344-3.6824.5346 2.6727 2.6302zm1.8581-1.9769l.8061-1.6291.806 1.6291 1.7987.263-1.2981 1.2642.3054 1.7903-1.612-.8485-1.6121.8485.3054-1.7903-1.2981-1.2642 1.7987-.263zM5.7102 24.1896l.6279-3.6738-2.6557-2.6302 3.6823-.5346 1.646-3.3344 1.646 3.3344 3.6824.5346-2.6727 2.6302.6279 3.6738-3.292-1.6969-3.292 1.6969zm3.3005-7.2798l-.806 1.6291-1.8072.2715 1.3066 1.2557-.3055 1.7903 1.6121-.8485 1.6121.8485-.3054-1.7903 1.2981-1.2642-1.7987-.263-.806-1.6291z" fill="#1E132C"/></svg>