<svg width="35" height="25" viewBox="0 0 35 25" fill="none" xmlns="http://www.w3.org/2000/svg"><path fill-rule="evenodd" clip-rule="evenodd" d="M31.4896 2.6704L34.2342.3338l.7665.3585-.0865 7.356-.4636.4575h-2.1574L31.4896 9.6v14.7553H.0007V0h31.4889v2.6704zM30.5562.952H.928v2.0152h29.6282V.952zm-.4945 2.9486H.928v19.5151h2.621l9.6246-13.043.1237.0618.1174-.2535h3.709l.377.1917 4.29 5.8415 5.6562-7.6837h-1.564l-.3029-.822 4.4817-3.808zm-15.7136 7.2138l5.6253 7.6095 1.2363-1.7246-4.3271-5.8849h-2.5345zm-.8468.4266L4.81 23.2859l2.5097.0062 7.4179-10.0327-1.2363-1.7184zm-5.106 11.8747h22.1609V10.8672l-6.5772 8.9942-.3771.1916H19.893l-.1422-.2782-.1174.0866-4.29-5.8293-6.9481 9.3836zm23.663-15.8495h1.9287l.0494-5.86-6.911 5.8724h1.2363l.3771.7418-7.9247 10.7992h2.5344l8.3327-11.3617.3771-.1917zM1.5523 1.4464h.9582v.9334h-.9582v-.9334zm1.6566 0h.9582v.9334h-.9582v-.9334zm2.6211 0H4.872v.9334H5.83v-.9334z" fill="#0042EA"/></svg>