<svg width="36" height="34" viewBox="0 0 36 34" fill="none" xmlns="http://www.w3.org/2000/svg"><path fill-rule="evenodd" clip-rule="evenodd" d="M33.2546 0H1.797A1.803 1.803 0 0 0 .0007 1.7962v21.5884a1.803 1.803 0 0 0 1.7963 1.7963h11.0195l1.0024 1.2849h-.6324v1.7895h-.2623v5.3012h1.0293v-4.2719h13.3876v4.2787h1.0293v-5.308h-1.3455v-1.7895h-2.368a5.996 5.996 0 0 0 .6727-1.2849h7.925a1.803 1.803 0 0 0 1.7962-1.7963V1.7962A1.803 1.803 0 0 0 33.2546 0zm-7.2792 28.2553h-11.773v-.7602h9.3781l.0471.0673.074-.0673h2.2537l.0201.7602zm-10.8648-1.7895l-3.9019-5.0119v-5.6242h.2085a1.6545 1.6545 0 0 1 1.1683.4895c.153.1543.2742.3372.3566.5383.0823.2012.1242.4166.1234.6339v3.6261h1.0293V6.7813a.956.956 0 0 1 .5679-.9548.9551.9551 0 0 1 1.3359.9548v7.1176a1.9501 1.9501 0 0 0 0 .2489v.8006h.0606c0 .3079.0704.3576.14.4066l.0147.0105.814.5853v-1.8231a.9217.9217 0 1 1 1.8433 0v.7063h1.0293a.905.905 0 0 1 1.5447-.6398.9049.9049 0 0 1 .265.6398v.3566h1.0293c0-.1682 0-.5449.9015-.5449a.9068.9068 0 0 1 .6451.2755.9093.9093 0 0 1 .2564.6529l.0673 1.4329v6.6131a4.474 4.474 0 0 1-1.2917 2.8188l-8.2075.0269zm10.5419-9.4588l-.0538-1.4397a1.9377 1.9377 0 0 0-1.9308-1.9307 2.4752 2.4752 0 0 0-1.1638.2489 1.9317 1.9317 0 0 0-1.2563-.913 1.9312 1.9312 0 0 0-1.5222.3075 1.9294 1.9294 0 0 0-1.1398-.9701 1.9314 1.9314 0 0 0-1.4906.1359V6.7813A1.981 1.981 0 0 0 15.114 4.8a1.9814 1.9814 0 0 0-1.9813 1.9813v8.6178a2.691 2.691 0 0 0-1.6818-.5987h-1.2513v7.0033l.2018.2624H4.2188V3.1081h27.0108v18.958h-5.5771V17.007zm8.3757 6.3776a.7735.7735 0 0 1-.7736.767h-7.6559a3.691 3.691 0 0 0 .0404-.5046v-.5516h6.6198V2.0788H3.1963v21.0166h7.9855l.8207 1.0562H1.797a.7735.7735 0 0 1-.7737-.767V1.7962a.7736.7736 0 0 1 .7737-.7669h31.4576a.7735.7735 0 0 1 .7736.767v21.5883zM2.5302 11.6183H1.501v1.9443h1.0293v-1.9443zm30.0181.3968h1.0293v1.1437h-1.0293v-1.1437z" fill="#16C981"/></svg>