<svg width="32" height="32" viewBox="0 0 32 32" fill="none" xmlns="http://www.w3.org/2000/svg"><path fill-rule="evenodd" clip-rule="evenodd" d="M22.5088 1.001l-.009 6.4995-1-.001L21.5088 1h-3.509v2h2c.276 0 .5.2235.5.5V8h-1V4h-1.5v.5c0 .827-.673 1.5-1.5 1.5h-10c-.827 0-1.5-.673-1.5-1.5V4h-2v24h16.5v-4.5h1v5c0 .2765-.224.5-.5.5h-17.5c-.276 0-.5-.2235-.5-.5v-25c0-.2765.224-.5.5-.5h2.5V1h-4v30h20.5v-6.5h1V31c0 .5515-.4485 1-1 1h-20.5c-.5515 0-1-.4485-1-1V1c0-.5515.4485-1 1-1h20.509c.2675 0 .5185.104.7075.2935a.995.995 0 0 1 .2925.7075zM16.4998 5c.2755 0 .5-.224.5-.5V1h-11v3.5c0 .276.2245.5.5.5h10zm-9-2.5h1v1h-1v-1zm8 0h-1v1h1v-1zm-4.5 0h1v1h-1v-1zm4.693 19.496l-3.695 2.872-5.998-4.614v-8.9105l6.002-2.3085 3.8225 1.4335.351-.9365-4-1.5005a.5046.5046 0 0 0-.355.0015l-6.5 2.5a.5007.5007 0 0 0-.3205.467v9.5c0 .1555.072.302.195.3965l6.5 5a.5005.5005 0 0 0 .612-.002l4-3.1095-.614-.789zm-4.2346-5.2445l1.651-2.064.781.625-2 2.5a.501.501 0 0 1-.3905.1875.4975.4975 0 0 1-.3535-.1465l-1-1 .707-.707.605.605zm.5416-4.2515c-2.2055 0-4 1.7945-4 4s1.7945 4 4 4 4-1.7945 4-4-1.7945-4-4-4zm0 7c-1.6545 0-3-1.3455-3-3s1.3455-3 3-3 3 1.3455 3 3-1.3455 3-3 3zm5-3.5c0-4.1355 3.3645-7.5 7.5-7.5s7.5 3.3645 7.5 7.5-3.3645 7.5-7.5 7.5-7.5-3.3645-7.5-7.5zm13.975-.5a6.4458 6.4458 0 0 0-.714-2.5h-2.2045a10.674 10.674 0 0 1 .425 2.5h2.4935zm-3.271-3.5h1.909c-.8035-1.0245-1.903-1.806-3.173-2.204.4685.5815.909 1.336 1.264 2.204zm-5.7155 1a9.5512 9.5512 0 0 0-.47 2.5h5.9635a9.5717 9.5717 0 0 0-.47-2.5h-5.0235zm5.023 6a9.5512 9.5512 0 0 0 .47-2.5h-5.9635c.0485.9135.223 1.754.47 2.5h5.0235zm-.395-7c-.7215-1.554-1.688-2.5-2.1165-2.5-.4285 0-1.395.946-2.117 2.5h4.2335zm-5.3205 0c.3545-.868.7955-1.6225 1.264-2.204-1.27.398-2.3695 1.1795-3.173 2.204h1.909zm-.352 1h-2.2045a6.4458 6.4458 0 0 0-.714 2.5h2.493a10.648 10.648 0 0 1 .4255-2.5zm-2.9185 3.5a6.4538 6.4538 0 0 0 .7135 2.5h2.2045a10.674 10.674 0 0 1-.425-2.5h-2.493zm3.2705 3.5h-1.909c.8035 1.0245 1.903 1.806 3.173 2.204-.4685-.5815-.909-1.336-1.264-2.204zm1.0875 0c.7215 1.554 1.688 2.5 2.1165 2.5.4285 0 1.395-.946 2.117-2.5h-4.2335zm5.3205 0c-.3545.868-.7955 1.6225-1.264 2.204 1.27-.398 2.3695-1.1795 3.173-2.204h-1.909zm.352-1h2.2045a6.4458 6.4458 0 0 0 .714-2.5h-2.493a10.648 10.648 0 0 1-.4255 2.5z" fill="#09D02A"/></svg>