<svg width="31" height="31" viewBox="0 0 31 31" fill="none" xmlns="http://www.w3.org/2000/svg"><path fill-rule="evenodd" clip-rule="evenodd" d="M17.3156 0h11.2618c1.3354 0 2.4218 1.0864 2.4218 2.4219v7.0234c0 1.3354-1.0864 2.4219-2.4218 2.4219h-6.4313v1.8164c0 .8012-.6519 1.4531-1.4531 1.4531H8.666l-2.2849 2.2849a.6055.6055 0 0 1-1.0336-.4281v-1.8568H4.722c-.8013 0-1.4531-.6519-1.4531-1.4531V4.1172c0-.8012.6518-1.4531 1.4531-1.4531h10.1719v-.2422C14.8938 1.0864 15.9802 0 17.3156 0zm3.3774 13.9258a.2425.2425 0 0 0 .2421-.2422v-1.8164h-3.6195c-1.3354 0-2.4218-1.0865-2.4218-2.422V3.875H4.7219a.2424.2424 0 0 0-.2422.2422v9.5664c0 .1335.1086.2422.2422.2422h1.2312a.6055.6055 0 0 1 .6054.6054v1.0006l1.4286-1.4287a.6056.6056 0 0 1 .4282-.1773H20.693zm7.8844-3.2696c.6677 0 1.2109-.5432 1.2109-1.211V2.422c0-.6677-.5432-1.211-1.2109-1.211H17.3156c-.6677 0-1.2109.5433-1.2109 1.211v7.0234c0 .6677.5432 1.2109 1.2109 1.2109h11.2618zm-10.4757 5.5073v4.4552c1.2142.2763 2.1234 1.3639 2.1234 2.6605s-.9092 2.3841-2.1234 2.6604v4.4551a.6056.6056 0 0 1-.8314.5617l-9.7107-3.9056v3.3438a.6055.6055 0 0 1-.6054.6055H4.4824a.6055.6055 0 0 1-.6055-.6055v-3.6359h-.4001c-1.9175 0-3.4775-1.56-3.4775-3.4775s1.56-3.4775 3.4773-3.4775H6.837l10.433-4.2018a.6056.6056 0 0 1 .8317.5616zM5.0879 29.7892h1.2607v-3.0306H5.088v3.0306zm-1.6111-4.2415h2.872l.0002-4.5331H3.4768c-1.2498 0-2.2666 1.0168-2.2666 2.2666 0 1.2497 1.0168 2.2665 2.2666 2.2665zm13.4139 3.9508h.0001V17.06l-1.4945.6019v6.4964a.6055.6055 0 0 1-1.2109 0v-6.0087l-6.6255 2.6683v4.9277l9.3308 3.7529zm1.211-7.6111v2.7834c.5365-.2343.9125-.7698.9125-1.3917 0-.6219-.376-1.1573-.9125-1.3917zm-3.3109 4.1393a.6097.6097 0 0 1 .428.1775.6097.6097 0 0 1 .1775.428.6095.6095 0 0 1-.1775.428.6074.6074 0 0 1-.428.1774.6075.6075 0 0 1-.4281-.1774.6088.6088 0 0 1-.1774-.428.6096.6096 0 0 1 .1774-.428.6097.6097 0 0 1 .4281-.1775zm11.2104-3.3352h-3.4281a.6054.6054 0 0 0 0 1.2109h3.4281a.6054.6054 0 0 0 0-1.2109zm-3.6677-4.4366a.6056.6056 0 0 1 .8563.8563l-1.1825 1.1824a.6034.6034 0 0 1-.4281.1774.6056.6056 0 0 1-.4282-1.0337l1.1825-1.1824zm.9007 9.1715l-1.222-1.2221a.6058.6058 0 0 0-.8563 0 .6057.6057 0 0 0 0 .8564l1.2221 1.222a.6037.6037 0 0 0 .4281.1774.6054.6054 0 0 0 .4281-1.0337zm2.1446-22.0172L21.235 3.0167a.6053.6053 0 0 0-.9082.5244v4.7848a.6055.6055 0 0 0 .9082.5243l4.1438-2.3924a.6054.6054 0 0 0 0-1.0486zm-3.8411 1.868V4.5898l2.3275 1.3437-2.3275 1.3437zM6.9325 6.3574h6.0547a.6055.6055 0 0 1 0 1.211H6.9326a.6055.6055 0 0 1 0-1.211zm6.4827 3.568a.6097.6097 0 0 0-.4281-.1774.6097.6097 0 0 0-.428.1774.6101.6101 0 0 0-.1774.4281.61.61 0 0 0 .1774.428.6101.6101 0 0 0 .428.1775.6087.6087 0 0 0 .4281-.1775.61.61 0 0 0 .1774-.428.6101.6101 0 0 0-.1774-.428zM6.9325 9.748h3.7836a.6055.6055 0 0 1 0 1.211H6.9325a.6055.6055 0 0 1 0-1.211z" fill="#00A5EA"/></svg>