<svg width="38" height="33" viewBox="0 0 38 33" fill="none" xmlns="http://www.w3.org/2000/svg"><path fill-rule="evenodd" clip-rule="evenodd" d="M34.8531 15.6595v.325l-.0062.0063a3.6563 3.6563 0 0 1-.475 7.2375h-16.375v8.3062a.544.544 0 0 1-.1563.3813 2.8 2.8 0 0 1-3.9562 0 .544.544 0 0 1-.1563-.3813v-8.325H6.5406a6.6308 6.6308 0 0 1-6.511-6.0019 6.6314 6.6314 0 0 1 5.261-7.1231 10.5187 10.5187 0 0 1 20.825-1.625 7.2322 7.2322 0 0 1 1.4-.1375 7.3503 7.3503 0 0 1 7.3375 7.3375zm-19.6375 2.625h.0813v.0375h.5875a7.2502 7.2502 0 0 0 6.694-4.4957 7.2497 7.2497 0 0 0 .5435-2.7793 7.2553 7.2553 0 0 0-2.1276-5.1331 7.2554 7.2554 0 0 0-5.1349-2.1231 7.2562 7.2562 0 0 0-5.1188 12.3937 7.1307 7.1307 0 0 0 4.475 2.1zm-.4 11.9125h2.1v-8.8375h-2.1v8.8375zm1.6-10.8h-.55c-.1424 0-.2884-.0108-.4326-.0215-.0456-.0033-.0911-.0067-.1361-.0097v.9375h1.1187v-.9063zm.4688 11.9125h-2.0438a1.7124 1.7124 0 0 0 2.0438 0zm16.675-9.2375l.3937.0625a2.5878 2.5878 0 0 0 2.5772-1.5429 2.5891 2.5891 0 0 0 .2166-1.0383 2.5564 2.5564 0 0 0-2.5-2.5625h-.5938l.0688-.5875a6.2497 6.2497 0 0 0-2.1452-5.4821 6.2503 6.2503 0 0 0-5.7486-1.268l-.625.1688-.0875-.625a9.431 9.431 0 0 0-9.9503-7.8623 9.4312 9.4312 0 0 0-8.781 9.1498v.4813l-.4812.1187a5.5438 5.5438 0 0 0 .625 11.05h7.2188v-1.325a.5248.5248 0 0 1 .4812-.5312V19.222a8.344 8.344 0 0 1-6.6644-9.004 8.3438 8.3438 0 0 1 8.3019-7.521 8.344 8.344 0 0 1 8.3857 7.5119 8.3436 8.3436 0 0 1-6.7294 9.0256v1.0563a.5374.5374 0 0 1 .4812.5312v1.2938h15.5563v-.0438zM21.9148 8.5459a6.538 6.538 0 0 1 .4947 2.507 6.5374 6.5374 0 0 1-6.5438 6.5438 6.5469 6.5469 0 0 1 0-13.0938 6.5374 6.5374 0 0 1 6.0491 4.043zm-8.183 7.602a5.462 5.462 0 0 0 2.1464.3613h.0063a5.4565 5.4565 0 0 0 4.9651-3.2282 5.4561 5.4561 0 0 0-.9026-5.853l-5.1875 5.1874-.7688-.7687 5.1563-5.1875a5.4103 5.4103 0 0 0-.8375-.5188l-3.4313 3.4313-.7562-.7438 3.075-3.075a5.5064 5.5064 0 0 0-1.3188-.1625 5.4623 5.4623 0 0 0-5.6472 5.4594c0 .7329.1475 1.4583.4336 2.133a5.4637 5.4637 0 0 0 3.0672 2.9651z" fill="#00A5EA"/></svg>