<svg width="44" height="25" viewBox="0 0 44 25" fill="none" xmlns="http://www.w3.org/2000/svg"><path fill-rule="evenodd" clip-rule="evenodd" d="M36.8485.2467l7.0716 10.5169a.4992.4992 0 0 1-.1435.6866l-5.8983 4.0132a.499.499 0 0 1-.2808.0874h-.1124a.5.5 0 0 1-.3183-.2122l-1.2857-1.9161-.4993.2808-.2809.593.1747.1186a1.7786 1.7786 0 0 1 .5493 2.4529l-.5368.8488a1.7647 1.7647 0 0 1-1.111.7802 1.793 1.793 0 0 1-.3932.0437 1.7602 1.7602 0 0 1-.9487-.2746l-.4119-.2622a1.7605 1.7605 0 0 1-.2559.7552l-.5368.8489a1.7714 1.7714 0 0 1-1.1095.7815 1.7702 1.7702 0 0 1-.6917.0169 1.77 1.77 0 0 1-.6454-.2492l-.412-.2621a1.7534 1.7534 0 0 1-.2559.7552l-.5368.8489a1.7656 1.7656 0 0 1-1.1109.7801 1.7825 1.7825 0 0 1-.3933.0437 1.7602 1.7602 0 0 1-.9487-.2746l-.4119-.2621a1.754 1.754 0 0 1-.2434.7677l-.5742.8488a1.7615 1.7615 0 0 1-1.111.7802 1.7823 1.7823 0 0 1-.3932.0437 1.7598 1.7598 0 0 1-.9487-.2746l-.8426-.5368a2.1032 2.1032 0 0 1-2.8025.4993l-.2247-.1435a2.0916 2.0916 0 0 1-.9237-1.3232v-.1686l-.1685.0437a2.0906 2.0906 0 0 1-1.5854-.2808l-.2247-.1436a2.0971 2.0971 0 0 1-.9487-1.4917l-.1685.0437a2.0906 2.0906 0 0 1-1.5853-.2809l-.2247-.1435a2.097 2.097 0 0 1-.9487-1.473 2.1162 2.1162 0 0 1-.6242.0936 2.0906 2.0906 0 0 1-1.1297-.3308l-.2247-.1436a2.1026 2.1026 0 0 1-.9145-1.325 2.103 2.103 0 0 1 .2904-1.5835l.0936-.1435a2.0925 2.0925 0 0 1 .5055-.5431l-.4181-.8675-.6242-.362-1.3419 1.9972a.4987.4987 0 0 1-.3183.2123h-.0936a.5002.5002 0 0 1-.281-.0874L.2173 11.4564a.4994.4994 0 0 1-.131-.6928L7.1576.2217a.4994.4994 0 0 1 .6928-.1373l5.8982 4.0133a.4929.4929 0 0 1 .1623.1872h16.1842a.4929.4929 0 0 1 .1623-.1872L36.1557.0844a.4995.4995 0 0 1 .6928.1623zM1.1908 10.9134l5.0744 3.4515 6.5099-9.693-5.0744-3.4516-6.5099 9.6931zm10.3297 6.204l.2247-.3557a1.1047 1.1047 0 0 0-.4431-1.2795l-.2185-.1436a1.0984 1.0984 0 0 0-.5929-.1748 1.1253 1.1253 0 0 0-.2434 0 1.0998 1.0998 0 0 0-.6928.4869l-.0937.1435a1.1052 1.1052 0 0 0 .0247 1.2304c.0834.1192.1896.2207.3124.2988l.2184.1436a1.1048 1.1048 0 0 0 1.3981-.1686 2.6162 2.6162 0 0 1 .1061-.181zm2.6285 2.1786a1.1048 1.1048 0 0 0 .2988-.3124l.9549-1.4542a1.1046 1.1046 0 0 0-.337-1.523l-.2185-.1435a1.0984 1.0984 0 0 0-.5929-.1748 1.1253 1.1253 0 0 0-.2434 0 1.0987 1.0987 0 0 0-.6928.4681l-.6741 1.0611a2.1044 2.1044 0 0 1-.1623.3121l-.0936.1435-.1124.1498a1.105 1.105 0 0 0 .4245 1.3544l.2184.1436a1.1052 1.1052 0 0 0 1.2304-.0247zm3.226 1.5289l.0937-.1436 1.3669-2.1408a1.1045 1.1045 0 0 0-.0247-1.2304 1.1048 1.1048 0 0 0-.3124-.2988l-.2184-.1435a1.1051 1.1051 0 0 0-1.2304.0246 1.1047 1.1047 0 0 0-.2988.3124l-.5056.7927-.9549 1.4979a1.105 1.105 0 0 0 .337 1.523l.2185.1435a1.1047 1.1047 0 0 0 1.5291-.337zm2.9273 1.8724l.0936-.1435a1.1051 1.1051 0 0 0-.0246-1.2304 1.106 1.106 0 0 0-.3124-.2988l-.2185-.1436a1.1045 1.1045 0 0 0-1.5291.3371l-.0937.1435a1.105 1.105 0 0 0 .3371 1.5292l.2184.1436a1.105 1.105 0 0 0 1.5292-.3371zm14.1744-5.5237l.5243-.8613a.774.774 0 0 0-.2434-1.0611l-5.8295-3.6388h-3.4766c-2.1158 0-3.5451-1.061-3.7823-2.74h-3.4328V9.946a1.9407 1.9407 0 0 1-1.4605 1.8725l-2.3219.6242h-.1248a.4993.4993 0 0 1-.4993-.4994V7.3807a.4984.4984 0 0 1 .2434-.4307l2.74-1.6352H13.549l-4.8371 7.1964.7115.4057a.4992.4992 0 0 1 .206.2185l.5055 1.0485a2.0974 2.0974 0 0 1 1.4917.2934l.2247.1435c.3221.207.5812.4985.749.8426a2.1032 2.1032 0 0 1 2.7962-.4806l.2184.1436a2.091 2.091 0 0 1 .8302 1.0174 2.1029 2.1029 0 0 1 2.3905-.0874l.2184.1435a2.11 2.11 0 0 1 .6242 2.9086l-.412.6241a2.0911 2.0911 0 0 1 1.1048.3246l.2434.0998a2.1096 2.1096 0 0 1 .905 2.3031l.9175.5805a.7736.7736 0 0 0 1.0673-.2372l.5368-.8488a.774.774 0 0 0-.2372-1.0673l-1.498-.9487a.4997.4997 0 0 1 .1603-.909.4993.4993 0 0 1 .3765.0664l3.2456 2.0597a.774.774 0 0 0 1.0673-.2372l.5367-.8488a.7736.7736 0 0 0-.2371-1.0673l-3.2456-2.0597a.4994.4994 0 0 1 .4556-.8863l.0811.0374 2.0597 1.3045 2.946 1.8724a.7741.7741 0 0 0 1.0673-.2371l.5368-.8489a.7737.7737 0 0 0-.2559-1.0298l-4.9932-3.1707a.4997.4997 0 0 1 .1603-.909.4994.4994 0 0 1 .3765.0664l4.9932 3.1707 1.7725 1.0985a.774.774 0 0 0 1.0673-.2372zm.0937-4.0507a.4997.4997 0 0 1 .2059-.2185l.568-.337-4.8933-7.2589H18.7981l-3.9384 2.353v3.6076l1.6977-.4369a.9417.9417 0 0 0 .5119-.3337.9417.9417 0 0 0 .1996-.5775V8.3544a.4991.4991 0 0 1 .4994-.4993h4.369a.4995.4995 0 0 1 .4993.4993c0 2.0784 2.1596 2.2407 2.8212 2.2407h3.6887a.4985.4985 0 0 1 .4119.2122l4.7061 2.9397.3059-.6241zm-3.3455-8.451l6.5099 9.6805 5.0743-3.439-6.5098-9.693-5.0744 3.4515zM5.6722 11.2567a.9299.9299 0 0 0-.1814 1.8421.9297.9297 0 0 0 1.1114-.9121.936.936 0 0 0-.93-.93zm-.0686.93a.0688.0688 0 0 1 .1062-.0349.0688.0688 0 0 1 .0249.0349c.0312.0749-.1249.0749-.1249 0h-.0062zm32.4807.93a.9303.9303 0 0 0 .9121-1.1114.9296.9296 0 0 0-.7307-.7307.9296.9296 0 0 0-.9546.3954.93.93 0 0 0-.1568.5167.937.937 0 0 0 .2742.6558.937.937 0 0 0 .6558.2742zm0-.9987a.0691.0691 0 0 1 .0486.0201.0691.0691 0 0 1 .0201.0486c0 .0749-.1311.0749-.1311 0a.0687.0687 0 0 1 .0624-.0687z" fill="#FDA601"/></svg>