<svg width="30" height="30" viewBox="0 0 30 30" fill="none" xmlns="http://www.w3.org/2000/svg"><path fill-rule="evenodd" clip-rule="evenodd" d="M2.5007 0h25c1.3785 0 2.5 1.1215 2.5 2.5V20c0 1.3785-1.1215 2.5-2.5 2.5h-8.4005l.818 4.5h1.9645c.572 0 1.086.3175 1.341.829.2345.4685.21 1.014-.0655 1.4595-.2755.4455-.7525.7115-1.276.7115H8.1187c-.5235 0-1.001-.266-1.276-.7115a1.4919 1.4919 0 0 1-.0655-1.4595c.256-.5115.77-.829 1.342-.829h1.9645l.818-4.5h-8.401c-1.3785 0-2.5-1.1215-2.5-2.5V2.5c0-1.3785 1.1215-2.5 2.5-2.5zm19.382 28h-4.382c-.276 0-.5-.224-.5-.5s.224-.5.5-.5h1.401l-.8185-4.5h-6.1655l-.818 4.5h3.401c.276 0 .5.224.5.5s-.224.5-.5.5h-6.382a.4973.4973 0 0 0-.447.276c-.113.2255-.0225.415.0215.4865.044.0715.174.2375.4255.2375h13.764c.2515 0 .381-.166.426-.237.0435-.0715.134-.2615.0215-.4865A.4982.4982 0 0 0 21.8827 28zm5.618-6.5c.827 0 1.5-.673 1.5-1.5v-1.5h-28V20c0 .827.673 1.5 1.5 1.5h25zm-26.5-4h28v-15c0-.827-.673-1.5-1.5-1.5h-25c-.827 0-1.5.673-1.5 1.5v15zm7.5-7.5h5c.276 0 .5.224.5.5 0 3.3085-2.6915 6-6 6s-6-2.6915-6-6 2.6915-6 6-6c.276 0 .5.224.5.5v5zm-5.5.5c0 2.757 2.243 5 5 5 2.588 0 4.7235-1.977 4.975-4.5h-4.975c-.276 0-.5-.224-.5-.5V5.525c-2.523.2515-4.5 2.387-4.5 4.975zm7-8c-.276 0-.5.224-.5.5v5.5c0 .276.224.5.5.5h5.5c.276 0 .5-.224.5-.5 0-3.3085-2.6915-6-6-6zm.5 5.5V3.525c2.3585.235 4.24 2.1165 4.475 4.475h-4.475zm7-6h10c.276 0 .5.224.5.5V16c0 .276-.224.5-.5.5h-10c-.276 0-.5-.224-.5-.5V2.5c0-.276.224-.5.5-.5zm.5 13.5h9V3h-9v12.5zm4.5-11h-3c-.276 0-.5.224-.5.5s.224.5.5.5h3c.276 0 .5-.224.5-.5s-.224-.5-.5-.5zm-3 2h6c.276 0 .5.224.5.5s-.224.5-.5.5h-6c-.276 0-.5-.224-.5-.5s.224-.5.5-.5zm3 2h-3c-.276 0-.5.224-.5.5s.224.5.5.5h3c.276 0 .5-.224.5-.5s-.224-.5-.5-.5zm-3 2h6c.276 0 .5.224.5.5s-.224.5-.5.5h-6c-.276 0-.5-.224-.5-.5s.224-.5.5-.5zm3 2h-3c-.276 0-.5.224-.5.5s.224.5.5.5h3c.276 0 .5-.224.5-.5s-.224-.5-.5-.5zm-8.5 7h2c.276 0 .5.224.5.5s-.224.5-.5.5h-2c-.276 0-.5-.224-.5-.5s.224-.5.5-.5z" fill="#FF3E01"/></svg>