<svg width="37" height="32" viewBox="0 0 37 32" fill="none" xmlns="http://www.w3.org/2000/svg"><path fill-rule="evenodd" clip-rule="evenodd" d="M2.2792 0h32.4402c1.2572 0 2.2799 1.0227 2.2799 2.2798V24.293c0 1.2571-1.0228 2.2798-2.2799 2.2798H23.7476l.4438 3.5504h1.8387a.542.542 0 1 1 0 1.0839H10.9685a.5419.5419 0 1 1 0-1.0839h1.8387l.4438-3.5504H2.2792c-1.2572 0-2.28-1.0227-2.28-2.2798V2.2799C-.0007 1.0226 1.022 0 2.2793 0zm12.0643 26.5727l-.4439 3.5504h9.1993l-.4437-3.5504h-1.9948l-.1957.7827a2.0229 2.0229 0 0 1-1.9654 1.5344 2.023 2.023 0 0 1-1.9654-1.5344l-.1957-.7827h-1.9947zm5.1994 0h-2.0874l.1299.5198a.9406.9406 0 0 0 .9138.7134.9405.9405 0 0 0 .9138-.7134l.1299-.5198zm15.1765-1.084c.6594 0 1.1959-.5364 1.1959-1.1958V2.2799c0-.6595-.5365-1.196-1.1959-1.196H2.2792c-.6594 0-1.196.5365-1.196 1.196v22.013c0 .6594.5366 1.1958 1.196 1.1958h32.4402zM2.8584 2.3172h27.806a.5419.5419 0 0 1 .5419.542.542.542 0 0 1-.5419.542H3.4004v19.7705h.6167c.2993 0 .542.2426.542.542a.542.542 0 0 1-.542.542H2.8584a.542.542 0 0 1-.542-.542V2.8593a.542.542 0 0 1 .542-.542zm31.2816 0h-1.1586a.542.542 0 1 0 0 1.084h.6167v19.7705H6.3341a.542.542 0 0 0-.542.542.542.542 0 0 0 .542.542H34.14a.542.542 0 0 0 .542-.542V2.8593a.542.542 0 0 0-.542-.542zm-8.6645 5.7932a.542.542 0 0 1 .5068.6478l-.911 4.5551a2.2742 2.2742 0 0 1-1.9692 1.8172l-7.6158.896a1.6995 1.6995 0 0 1-.6266-.0421l-.67 1.34-.0001.0002c-.0034.007-.0092.0186.0017.0361.0109.0177.024.0177.0317.0177h10.0694a.542.542 0 0 1 .542.542.5399.5399 0 0 1-.1786.4013 1.69 1.69 0 0 1 .1786.7573c0 .9376-.763 1.7005-1.7006 1.7005-.9376 0-1.7006-.7628-1.7006-1.7005 0-.2175.0415-.4253.1162-.6166h-4.9413c.0748.1913.1162.3991.1162.6166 0 .9376-.7629 1.7005-1.7005 1.7005-.9377 0-1.7006-.7628-1.7006-1.7005 0-.3064.0819-.5939.2243-.8424a1.124 1.124 0 0 1-.2781-.306 1.114 1.114 0 0 1-.0491-1.0909l.7274-1.4547a1.7075 1.7075 0 0 1-.2951-.5803l-1.9879-6.9578a.0379.0379 0 0 0-.0153-.0209l-1.5606-1.0403a.542.542 0 0 1 .6012-.902l1.5607 1.0405c.2158.144.3752.3587.4507.6064a.502.502 0 0 1 .0298.0005l12.7443.5793zm-1.7253 10.9687a.6172.6172 0 0 0-.6165-.6165.6171.6171 0 0 0-.6166.6165c0 .34.2765.6166.6166.6166.34 0 .6165-.2766.6165-.6166zm-8.11 0a.6171.6171 0 0 0-.6166-.6165.6171.6171 0 0 0-.6165.6165c0 .34.2765.6166.6165.6166a.6172.6172 0 0 0 .6166-.6166zm-2.6249-10.45l.6792 2.3772h1.8634l-.3757-2.2786-2.1669-.0985zm1.6795 5.8779a.6138.6138 0 0 0 .6649.4429l.8323-.0979-.4554-2.7617h-1.7323l.6905 2.4167zm2.5749.2183l1.267-.1491v-2.4858h-1.7014l.4344 2.6349zm-.6131-3.719h1.8801v-2.126l-2.2475-.1023.3674 2.2283zm2.9641 3.4423l1.6608-.1954.1958-2.1629h-1.8566v2.3583zm0-3.4423h1.9547l.1792-1.9799-2.1339-.097v2.0769zm3.3547 3.0477a1.193 1.193 0 0 0 1.0329-.9531l.202-1.0105h-1.6446l-.1841 2.0335.5938-.0699zm-.3115-3.0477h1.7633l.3684-1.8416-1.957-.089-.1747 1.9306z" fill="#B471FF"/></svg>