<svg width="37" height="36" viewBox="0 0 37 36" fill="none" xmlns="http://www.w3.org/2000/svg"><path fill-rule="evenodd" clip-rule="evenodd" d="M30.5533 3.4889H6.2212a.541.541 0 1 1 0-1.0751h6.8321V1.3525A1.3872 1.3872 0 0 1 14.4059 0h3.2669a1.3875 1.3875 0 0 1 1.3525 1.3525v1.0543h11.521a1.5258 1.5258 0 0 1 1.526 1.526v5.119a.5407.5407 0 0 1-.5376.4798.5412.5412 0 0 1-.5375-.4799V3.9328a.4441.4441 0 0 0-.4439-.444zM17.6797 1.082h-3.2738a.2775.2775 0 0 0-.2775.2705v1.0682h3.8288V1.3595a.2776.2776 0 0 0-.2775-.2775zm12.3879 25.5111H1.5252a.4437.4437 0 0 1-.4439-.4439V3.9535a.444.444 0 0 1 .444-.444h2.5386a.541.541 0 0 0 0-1.075H1.5252a1.526 1.526 0 0 0-1.526 1.5259v22.1958a1.526 1.526 0 0 0 1.526 1.5259h3.7109v1.1861a1.2276 1.2276 0 0 0 1.2277 1.2277h5.3894l-2.5386 4.9524a.5413.5413 0 0 0 .2059.7762.5403.5403 0 0 0 .6277-.0962.541.541 0 0 0 .1235-.1875l2.7745-5.4449h5.9721l2.7744 5.4449a.5407.5407 0 0 0 .701.186.5409.5409 0 0 0 .2562-.6785l-2.5386-4.9524h5.3894a1.2276 1.2276 0 0 0 1.2207-1.2277v-1.193h3.2323a.5408.5408 0 0 0 .5549-.3165.54.54 0 0 0 0-.4422.5419.5419 0 0 0-.1334-.1825.5422.5422 0 0 0-.4215-.1339l.0139-.007zm-4.3074 2.2612a.1462.1462 0 0 1-.0899.1346.146.146 0 0 1-.0557.0111H6.4638a.146.146 0 0 1-.1346-.0899.1458.1458 0 0 1-.011-.0558v-1.1791h19.4212l.0208 1.1791zm-2.3096-19.747a1.7962 1.7962 0 0 0 1.7355-1.4042 1.7964 1.7964 0 1 0-3.1713.7105l-2.9479 4.1201a1.79 1.79 0 0 0-1.7826.3954l-1.9629-1.1167a1.7959 1.7959 0 0 0-.3552-1.5107 1.7974 1.7974 0 0 0-1.3996-.6703 1.797 1.797 0 0 0-1.3997.6703 1.7975 1.7975 0 0 0-.3552 1.5107l-1.963 1.1167a1.7899 1.7899 0 0 0-2.3283-.0876 1.7893 1.7893 0 0 0-.4413 2.2878 1.7895 1.7895 0 0 0 3.3038-1.2638l1.9629-1.1168a1.7892 1.7892 0 0 0 2.4415 0l1.963 1.1168a1.7959 1.7959 0 0 0 1.2473 2.1091c.2889.085.5946.096.8888.0321a1.7975 1.7975 0 0 0 1.3022-1.1292 1.7963 1.7963 0 0 0-.2477-1.7057l2.9479-4.12c.1831.048.3728.0668.5618.0555zM8.628 14.9336a.6935.6935 0 1 1 .6936-.6936.6938.6938 0 0 1-.6936.6728v.0208zm4.9386-2.7744a.694.694 0 0 1-.6409-.4282.6934.6934 0 0 1 .5055-.9457.6934.6934 0 0 1 .829.6802.6937.6937 0 0 1-.6936.6382v.0555zm4.9385 2.7744a.6934.6934 0 0 1-.4905-1.184.6936.6936 0 0 1 1.1841.4904.6932.6932 0 0 1-.6867.6728l-.0069.0208zm4.9455-8.3234a.6938.6938 0 0 1 .6803.829.6938.6938 0 0 1-.9457.5055.6933.6933 0 0 1-.4282-.6409.6927.6927 0 0 1 .1905-.513.6927.6927 0 0 1 .5031-.2153v.0347zM7.5389 18.7416a.5412.5412 0 0 0-.541.541v4.7582a.5408.5408 0 0 0 .541.541h2.185a.5408.5408 0 0 0 .541-.541v-4.7582a.5412.5412 0 0 0-.541-.541h-2.185zm1.644 4.7582H8.0591v-3.6831H9.169l.0138 3.6831zm2.9121-7.3536a.541.541 0 0 1 .3826-.1585h2.1849a.5407.5407 0 0 1 .4998.334.5412.5412 0 0 1 .0412.2071v7.5118a.5412.5412 0 0 1-.541.5411h-2.1849a.5412.5412 0 0 1-.541-.5411v-7.5118c0-.1435.057-.2811.1584-.3826zm.9167 7.3534h1.1098v-6.4298h-1.1098v6.4298zm4.4044-4.758a.5414.5414 0 0 0-.5411.541v4.7582a.5407.5407 0 0 0 .334.4998.5412.5412 0 0 0 .2071.0412h2.1848a.5412.5412 0 0 0 .5411-.541v-4.7582a.541.541 0 0 0-.5411-.541h-2.1848zm1.6438 4.7582h-1.1098v-3.6831h1.1098v3.6831zm2.9192-1.423a.541.541 0 0 1 .9236.3895v1.0405h1.6438a.541.541 0 0 1 0 1.0751h-2.1849a.5407.5407 0 0 1-.4998-.334.5412.5412 0 0 1-.0412-.2071v-1.5814a.541.541 0 0 1 .1585-.3826zm14.5184 5.0227l-3.0866-5.3478a7.0406 7.0406 0 0 0-2.5693-11.3788 7.0402 7.0402 0 1 0-4.3669 13.3625 7.0732 7.0732 0 0 0 1.8312.2428 6.9388 6.9388 0 0 0 1.5884-.1803l3.0866 5.3478a2.081 2.081 0 1 0 3.5443-2.0809l-.0277.0347zm-9.78-4.4045a5.9583 5.9583 0 0 1-2.8081-9.8274 5.9578 5.9578 0 0 1 7.4944-.9885 5.9586 5.9586 0 0 1 2.4965 3.1436 5.9586 5.9586 0 0 1-2.6604 7.0758 5.9239 5.9239 0 0 1-4.5224.5965zm8.4829 6.2426a.9714.9714 0 0 1-1.3248-.3538L30.9 23.4649a7.07 7.07 0 0 0 1.6786-.971l2.9686 5.1466a.971.971 0 0 1-.3537 1.3248l.0069-.0277zm-2.3166-14.1707a5.098 5.098 0 0 1 .2567 3.69l.0069-.0069a5.1124 5.1124 0 0 1-4.8567 3.5968 5.1117 5.1117 0 0 1-4.8756-6.7273 5.1115 5.1115 0 0 1 4.9299-3.4959 5.112 5.112 0 0 1 3.0059 1.0358.541.541 0 1 1-.652.8601 4.0299 4.0299 0 1 0 1.2139 1.5052.5412.5412 0 0 1 .0451-.6412.5395.5395 0 0 1 .1809-.1382.541.541 0 0 1 .745.3216z" fill="#D90E30"/></svg>