<svg width="48" height="36" viewBox="0 0 48 36" fill="none" xmlns="http://www.w3.org/2000/svg"><path d="M29.4393 26.3999H18.5508c-.9148 0-1.6721.7475-1.6721 1.6721v6.0787c0 .9148.7475 1.6722 1.6721 1.6722h10.8787c.9147 0 1.6721-.7476 1.6721-1.6722V28.072c.0099-.9147-.7475-1.6721-1.6623-1.6721zM46.3277 26.3999H35.4392c-.9147 0-1.6721.7475-1.6721 1.6721v6.0787c0 .9148.7475 1.6722 1.6721 1.6722h10.8885c.9148 0 1.6722-.7476 1.6722-1.6722V28.072c-.0099-.9147-.7574-1.6721-1.6722-1.6721zM12.5607 26.3999H1.6721C.7574 26.3999 0 27.1474 0 28.072v6.0787c0 .9148.7475 1.6722 1.6721 1.6722h10.8787c.9148 0 1.6722-.7476 1.6722-1.6722V28.072c0-.9147-.7476-1.6721-1.6623-1.6721zM8.4195 21.1967h14.282v2.9115h2.6066v-2.9115H39.59v2.9115h2.6066v-4.2197c0-.718-.5803-1.2984-1.2984-1.2984h-15.6v-4.3082h7.3279c1.1115 0 2.0262-.9147 2.0262-2.0262V2.2032c0-1.1114-.9147-2.0262-2.0262-2.0262H15.3638c-1.1115 0-2.0262.9148-2.0262 2.0262v10.0623c0 1.1115.9147 2.0263 2.0262 2.0263h7.3279V18.6H7.1113a1.297 1.297 0 0 0-1.2983 1.2983v4.2197h2.6065v-2.9213zm8.223-16.3279c0-.3246.2656-.5803.5803-.5803h13.5541c.3246 0 .5804.2656.5804.5803v.7672c0 .3246-.2656.5804-.5804.5804H17.2228c-.3246 0-.5803-.2656-.5803-.5804v-.7672zm.5803 5.2918c-.3246 0-.5803-.2656-.5803-.5803V8.813c0-.3246.2656-.5804.5803-.5804h13.5541c.3246 0 .5804.2656.5804.5804v.7672c0 .3246-.2656.5803-.5804.5803H17.2228z" fill="#189F46"/></svg>