<svg width="40" height="34" viewBox="0 0 40 34" fill="none" xmlns="http://www.w3.org/2000/svg"><path d="M2.712 26.7793v6.484c0 .3944.3204.7231.723.7231h5.013c.3945 0 .7232-.3205.7232-.7231V21.8568l-3.6405 3.6405c-.7725.7643-1.7587 1.2081-2.8188 1.282zM11.6694 21.7746v11.4886c0 .3945.3205.7232.7232.7232h5.0129c.3945 0 .7232-.3205.7232-.7232v-6.7633c-1.1423-.0247-2.2106-.4766-3.016-1.282l-3.4433-3.4433zM20.627 25.785v7.4783c0 .3944.3205.7231.7231.7231h5.0129c.3945 0 .7232-.3205.7232-.7231V19.4654l-5.7443 5.7443a4.3064 4.3064 0 0 1-.7149.5753zM35.5589 10.9845l-5.9744 5.9744v16.3043c0 .3945.3205.7232.7231.7232h5.013c.3944 0 .7231-.3205.7231-.7232V11.4365c-.1643-.1397-.2876-.263-.378-.3452l-.1068-.1068z" fill="#00A5EA"/><path d="M39.6596.3998c-.2383-.2548-.5999-.3863-1.0601-.3863h-.1315c-2.3339.1069-4.6595.222-6.9934.3288-.3123.0164-.7396.0328-1.0766.3698-.1068.1068-.189.23-.2547.378-.3452.7478.1397 1.2327.3698 1.4628l.5835.5917A85.565 85.565 0 0 0 32.321 4.369L18.2191 18.4792l-6.336-6.336a2.014 2.014 0 0 0-1.4299-.5917c-.5424 0-1.0437.2137-1.4217.5917L.5917 20.5748c-.789.7889-.789 2.0626 0 2.8516l.378.378c.378.378.8876.5917 1.43.5917.5423 0 1.0436-.2137 1.4216-.5917l6.6319-6.6319 6.336 6.336c.378.3781.8875.5917 1.4299.5917s1.0437-.2136 1.4299-.5917L35.5589 7.5987l1.7997 1.7915c.2137.2136.5095.5095.9615.5095.189 0 .378-.0493.5752-.1561.1315-.074.2466-.1562.3452-.2548.3534-.3534.4191-.8054.4355-1.1587.0658-1.5121.1398-3.0242.2137-4.5445l.1069-2.2764c.0246-.4766-.0822-.8464-.337-1.1094z" fill="#00A5EA"/></svg>