<svg width="39" height="39" viewBox="0 0 39 39" fill="none" xmlns="http://www.w3.org/2000/svg"><g clip-path="url(#clip0)" fill="#54189F"><path d="M38.0877 33.6802l-8.1256-8.1256-.5839.5839-.9001-.9001c4.6142-6.1875 4.1196-14.9862-1.5002-20.606-6.1794-6.1712-16.1782-6.1712-22.3495 0-6.1712 6.1713-6.1712 16.1783 0 22.3414 5.6198 5.6198 14.4185 6.1226 20.6059 1.5002l.9002.9002-.5839.5838 8.1256 8.1256c1.2164 1.2164 3.1951 1.2164 4.4115 0 1.2164-1.2083 1.2164-3.1789 0-4.4034zM23.5395 23.5435c-4.2737 4.2737-11.2072 4.2737-15.4808 0-4.2736-4.2736-4.2736-11.2071 0-15.4808 4.2736-4.2736 11.2071-4.2736 15.4808 0 4.2736 4.2737 4.2736 11.2072 0 15.4808z"/><path d="M12.6242 15.1016c.1622 1.0461.9731 2.3842 2.303 2.8545a2.5086 2.5086 0 0 0 1.6868 0c1.3056-.4703 2.1409-1.8003 2.303-2.8464.1784-.0162.4055-.2595.6569-1.1434.3406-1.2083-.0243-1.3867-.3244-1.3543.0568-.1702.1054-.3324.1298-.4946.519-3.1221-1.0218-3.2357-1.0218-3.2357s-.2514-.4865-.9245-.8596c-.446-.2676-1.0785-.4703-1.9057-.4054-.2676.0162-.519.0648-.7541.146a3.3907 3.3907 0 0 0-.8353.4297c-.3082.1947-.6001.438-.8596.7056-.4055.4135-.7704.9569-.9245 1.6299-.1297.5028-.1054 1.0218.0081 1.5895.0325.1622.073.3325.1298.4946-.3082-.0324-.6731.146-.3244 1.3543.2514.8758.4866 1.1272.6569 1.1353z"/><path d="M21.358 19.351c-1.8327-.6974-2.9275-1.4191-2.9275-1.4191l-1.411 4.4601-.1946.6082-.6325-1.7921c1.4515-2.0274-.1136-2.1247-.3812-2.1247h-.0081-.0081-.0162c-.2676 0-1.8327.0973-.3812 2.1247l-.6325 1.7921-.1946-.6082-1.411-4.4601s-1.0948.7136-2.9275 1.4191c-.9894.3568-1.4597.9407-1.6949 1.8003.2595.3568.5514.6974.8758 1.0137 3.5195 3.5194 9.2204 3.5194 12.7398 0a9.2153 9.2153 0 0 0 .8759-1.0137c-.2109-.8596-.6893-1.4435-1.6706-1.8003z"/></g><defs><clipPath id="clip0"><path fill="#fff" d="M0 0h39v39H0z"/></clipPath></defs></svg>