<svg width="40" height="48" viewBox="0 0 40 48" fill="none" xmlns="http://www.w3.org/2000/svg"><path fill-rule="evenodd" clip-rule="evenodd" d="M38.0841 20.9202l.5892.8053c.9035 1.2373.5205 2.9952-.8249 3.7317l-.874.491c-.9526.5303-1.4632 1.6106-1.2668 2.6908l.1767.9821c.2848 1.5025-.8249 2.9166-2.3569 3.005l-1.0016.0589c-1.0901.0688-2.023.8249-2.3078 1.8757l-.2652.9624c-.4026 1.4731-2.0132 2.2685-3.4273 1.6793l-.9231-.383c-1.0115-.4124-2.1801-.1375-2.897.6874l-.658.7562c-1.0017 1.1588-2.7988 1.1686-3.8201.0295l-.6678-.7464c-.7365-.8151-1.9052-1.0704-2.9069-.6383l-.9231.3928c-1.4141.6089-3.0345-.1571-3.4567-1.6302l-.275-.9624c-.3044-1.0508-1.2472-1.7873-2.3373-1.8364l-1.0016-.0393c-1.532-.0589-2.6614-1.4534-2.406-2.9657l.1669-.9919c.1866-1.0802-.3437-2.1507-1.3061-2.6711l-.8838-.4714c-1.3454-.7267-1.7579-2.4748-.874-3.7219l.5793-.8151a2.5354 2.5354 0 0 0-.0196-2.9756l-.5892-.8053c-.9035-1.2374-.5205-2.9854.8249-3.7317l.874-.4911c.9526-.5303 1.4632-1.6105 1.2668-2.6907l-.1767-.982c-.2848-1.5026.8249-2.9167 2.3569-3.0051l1.0016-.059C8.564 6.386 9.497 5.63 9.7817 4.5792l.2652-.9624c.4026-1.473 2.0132-2.2685 3.4273-1.6793l.9231.383c1.0115.4124 2.1801.1375 2.897-.6874l.658-.7562C18.954-.282 20.7511-.2918 21.7724.8473l.6678.7464c.7365.815 1.9052 1.0704 2.9069.6383l.9231-.3928c1.4141-.6089 3.0345.1571 3.4567 1.6302l.275.9624c.3045 1.0507 1.2472 1.7873 2.3373 1.8364l1.0017.0393c1.5319.0589 2.6613 1.4534 2.4059 2.9657l-.1669.9919c-.1866 1.0802.3437 2.1506 1.3061 2.6711l.8838.4714c1.3454.7267 1.7579 2.4747.8741 3.7219l-.5794.8151a2.5354 2.5354 0 0 0 .0196 2.9756zM7.2186 19.565c0 7.0412 5.7253 12.7665 12.7665 12.7665 7.0412 0 12.7665-5.7253 12.7665-12.7665 0-7.0412-5.7253-12.7665-12.7665-12.7665-7.0412 0-12.7665 5.7253-12.7665 12.7665zm25.6607 15.9286l.4419-.0295 3.4175 6.1967c.216.383.2455.8445.0785 1.257l-1.6596 4.1442c-.2652.658-.9526 1.0311-1.64.9035l-4.3897-.8151c-.4321-.0786-.8053-.3535-1.0213-.7365l-3.6434-6.6288.2357-.275.7463.3143a5.373 5.373 0 0 0 2.0427.4026c2.406 0 4.537-1.6204 5.1753-3.9478l.2161-.7856zm-18.05 4.3995c-.6776.2946-1.3847.4419-2.1212.4419-2.3765 0-4.4977-1.5909-5.1557-3.8692l-.2259-.7758-.7856-.0295-3.2996 6.0101c-.2161.383-.2456.8446-.0786 1.257l1.6596 4.1442c.2652.658.9526 1.0312 1.64.9035l4.3897-.8151c.4321-.0786.8053-.3535 1.0214-.7365l3.7415-6.8056-.0294-.0294-.7562.3044zm12.2953-23.068c.9526.874.2161 2.023.2161 2.023s1.3356 1.1981-.0197 2.622c0 0 .8741 1.4436-.6677 2.6024 0 0 .707 1.9838-2.1409 2.5926-.8347.1768-1.8953.167-2.8872.0884-1.09.0196-2.1801-.0294-3.0639-.0884-2.4649-.2651-2.4846-4.5468-2.4846-4.6843v3.5648c0 .7955-.2848 1.0802-.3339 1.1293-.2259.1572-.5008.2456-.7954.2456h-2.1507c-.7856 0-1.4338-.6384-1.4338-1.4338v-5.7351c0-.7857.6384-1.4338 1.4338-1.4338h2.1507c.3535 0 .6776.1277.9329.3437.1178-.3535.3535-.8544.7758-1.3061 1.6007-1.2276 3.28-5.853 3.28-5.853s-.2651-1.6792.5205-1.6792 2.6515.5303 1.532 3.9183 0 2.8675 0 2.8675c.2553-.0589.491-.108.7169-.1473 0 0 3.2309-.7267 4.4191.3634z" fill="#FFC500"/></svg>