<svg width="39" height="37" viewBox="0 0 39 37" fill="none" xmlns="http://www.w3.org/2000/svg"><path d="M27.8009 34.3714h.1847c-1.9268-.2409-2.9543-1.0116-3.5002-1.7903h-9.9708c-.5459.7787-1.5735 1.5494-3.5002 1.7903h.1204c-.6021 0-1.0838.4897-1.0838 1.0837 0 .6021.4897 1.0838 1.0838 1.0838h16.6661c.6021 0 1.0838-.4897 1.0838-1.0838.008-.6021-.4817-1.0837-1.0838-1.0837zM39 23.7102V3.295C39 1.7295 37.7316.4611 36.1661.4611H2.8339C1.2684.4611 0 1.7295 0 3.295V28.3905c.0482 1.3327 1.148 2.4004 2.4967 2.4004H36.4953c1.3487 0 2.4405-1.0677 2.4967-2.4004L39 23.7102zm-17.2361 4.3592a.627.627 0 0 1-.6262.6262h-3.2834a.627.627 0 0 1-.6262-.6262v-.4335a.627.627 0 0 1 .6262-.6262h3.2834a.627.627 0 0 1 .6262.6262v.4335zm14.4022-3.3637H2.8339c-.273 0-.4977-.2248-.4977-.4978V3.295c0-.273.2247-.4977.4977-.4977H36.158c.2729 0 .4977.2248.4977.4977v20.9129c0 .273-.2167.4978-.4897.4978z" fill="#97BF00"/><path d="M27.6323 12.9125h1.2524l.0401-.0401c0-.3854-.0321-.7787-.0883-1.1641l-1.2042 1.2042zM24.7583 5.7997l-3.9739 3.9738v1.2524l4.7365-4.7365c-.2488-.1846-.5057-.3452-.7626-.4897zM22.9921 5.0691l-2.2077 2.2077v1.2524l3.1309-3.1309c-.297-.1365-.6101-.2408-.9232-.3292zM21.9645 4.8524c-.3853-.0562-.7706-.0883-1.164-.0883l-.0161.016v1.2524l1.1801-1.18zM23.8913 12.9125l3.9899-3.99c-.1445-.2568-.3051-.5137-.4897-.7626l-4.7526 4.7526h1.2524zM26.8375 7.4615c-.0963-.1044-.1926-.2087-.297-.313-.1044-.1044-.2168-.2088-.3292-.3132l-5.4269 5.435v.6342h.6102l5.4429-5.443zM26.3881 12.9125l2.2318-2.2318c-.0883-.3131-.2007-.6181-.3211-.9232l-3.155 3.155h1.2443z" fill="#97BF00"/><path d="M19.3634 6.169c-4.5117 0-8.1725 3.6608-8.1725 8.1725 0 4.5117 3.6608 8.1725 8.1725 8.1725 4.5118 0 8.1725-3.6608 8.1725-8.1725h-8.1725V6.169z" fill="#97BF00"/></svg>