<svg width="459" height="446" viewBox="0 0 459 446" fill="none" xmlns="http://www.w3.org/2000/svg"><g filter="url(#filter0_d)"><path d="M229 29l157.148 75.679 38.813 170.048-108.75 136.368H141.789L33.0395 274.727l38.8124-170.048L229 29z" fill="#fff"/><path d="M72.2858 105.025L229 29.555l156.714 75.47 38.705 169.578L315.97 410.595H142.03L33.5805 274.603l38.7053-169.578z" stroke="#EC4878"/></g><path d="M76.2858 103.025L233 27.555l156.714 75.47 38.705 169.578L319.97 408.595H146.03L37.5805 272.603l38.7053-169.578z" stroke="#97BF00" filter="url(#filter1_d)"/><path d="M69.2858 102.025L226 26.555l156.714 75.47 38.705 169.578L312.97 407.595H139.03L30.5805 271.603l38.7053-169.578z" stroke="#00A5EA" filter="url(#filter2_d)"/><defs><filter id="filter0_d" x="3.0396" y="3" width="451.921" height="442.095" filterUnits="userSpaceOnUse" color-interpolation-filters="sRGB"><feFlood flood-opacity="0" result="BackgroundImageFix"/><feColorMatrix in="SourceAlpha" values="0 0 0 0 0 0 0 0 0 0 0 0 0 0 0 0 0 0 127 0"/><feOffset dy="4"/><feGaussianBlur stdDeviation="15"/><feColorMatrix values="0 0 0 0 0 0 0 0 0 0 0 0 0 0 0 0 0 0 0.05 0"/><feBlend in2="BackgroundImageFix" result="effect1_dropShadow"/><feBlend in="SourceGraphic" in2="effect1_dropShadow" result="shape"/></filter><filter id="filter1_d" x="7.0396" y="1" width="451.921" height="442.095" filterUnits="userSpaceOnUse" color-interpolation-filters="sRGB"><feFlood flood-opacity="0" result="BackgroundImageFix"/><feColorMatrix in="SourceAlpha" values="0 0 0 0 0 0 0 0 0 0 0 0 0 0 0 0 0 0 127 0"/><feOffset dy="4"/><feGaussianBlur stdDeviation="15"/><feColorMatrix values="0 0 0 0 0 0 0 0 0 0 0 0 0 0 0 0 0 0 0.05 0"/><feBlend in2="BackgroundImageFix" result="effect1_dropShadow"/><feBlend in="SourceGraphic" in2="effect1_dropShadow" result="shape"/></filter><filter id="filter2_d" x=".0396" y="0" width="451.921" height="442.095" filterUnits="userSpaceOnUse" color-interpolation-filters="sRGB"><feFlood flood-opacity="0" result="BackgroundImageFix"/><feColorMatrix in="SourceAlpha" values="0 0 0 0 0 0 0 0 0 0 0 0 0 0 0 0 0 0 127 0"/><feOffset dy="4"/><feGaussianBlur stdDeviation="15"/><feColorMatrix values="0 0 0 0 0 0 0 0 0 0 0 0 0 0 0 0 0 0 0.05 0"/><feBlend in2="BackgroundImageFix" result="effect1_dropShadow"/><feBlend in="SourceGraphic" in2="effect1_dropShadow" result="shape"/></filter></defs></svg>