<svg width="48" height="48" viewBox="0 0 48 48" fill="none" xmlns="http://www.w3.org/2000/svg"><path d="M23.9999 14.0034c-5.5141 0-9.9967 4.4827-9.9967 9.9967 0 5.5141 4.4826 9.9967 9.9967 9.9967 5.514 0 9.9967-4.4826 9.9967-9.9967 0-5.514-4.4827-9.9967-9.9967-9.9967zm-2.9554 3.1537c-.605.843-1.2 1.924-1.5967 3.2331h-1.9636c.7934-1.438 2.0529-2.5785 3.5603-3.2331zm-4.195 8.9554c-.1984-.6744-.3075-1.3785-.3075-2.1124a7.399 7.399 0 0 1 .3075-2.1124h2.2413c-.1091.6546-.1785 1.3587-.1785 2.1124s.0595 1.4579.1785 2.1124h-2.2413zm.6347 1.4975h1.9636a11.4297 11.4297 0 0 0 1.5967 3.2331c-1.5074-.6546-2.7669-1.7951-3.5603-3.2331zm5.762 3.5207c-.724-.7339-1.6265-1.8843-2.2215-3.5207h2.2215v3.5207zm0-5.0182h-2.6281c-.129-.6446-.1984-1.3488-.1984-2.1124 0-.7636.0694-1.4678.1984-2.1124h2.6281v4.2248zm0-5.7223h-2.2215c.5851-1.6463 1.4975-2.7967 2.2215-3.5306v3.5306zm7.2694 0h-1.9637a11.4297 11.4297 0 0 0-1.5967-3.2331c1.5075.6546 2.767 1.7951 3.5604 3.2331zm-5.762-3.5207c.724.7339 1.6264 1.8843 2.2215 3.5207h-2.2215v-3.5207zm0 5.0182h2.6281c.1289.6446.1983 1.3488.1983 2.1124 0 .7636-.0694 1.4678-.1983 2.1124h-2.6281v-4.2248zm0 5.7223h2.2215c-.5851 1.6463-1.4975 2.7967-2.2215 3.5306V27.61zm2.2016 3.2331c.605-.843 1.2-1.924 1.5967-3.2331h1.9637c-.7934 1.438-2.0529 2.5785-3.5604 3.2331zm1.9439-4.7306c.109-.6545.1785-1.3587.1785-2.1124s-.0595-1.4578-.1785-2.1124h2.2413c.1983.6744.3074 1.3785.3074 2.1124a7.4024 7.4024 0 0 1-.3074 2.1124h-2.2413zM8.1122 25.6859h3.6298a11.8432 11.8432 0 0 1-.119-1.686c0-.4066.0198-.8033.0595-1.2H8.1123c-.5852-1.5967-2.1224-2.7372-3.9273-2.7372-2.3108 0-4.1752 1.8744-4.1752 4.1753 0 2.3107 1.8743 4.1752 4.1752 4.1752 1.805.0099 3.3322-1.1306 3.9272-2.7273zM22.5619 8.1124v3.5901c.476-.0595.9521-.0893 1.438-.0893.486 0 .9719.0298 1.438.0893v-3.6c1.5967-.5851 2.7372-2.1223 2.7372-3.9273C28.1751 1.8645 26.3007 0 23.9999 0c-2.3107 0-4.1752 1.8744-4.1752 4.1752 0 1.8149 1.1405 3.3422 2.7372 3.9372zM9.9866 14.1719a4.1698 4.1698 0 0 0 1.7554-.3868l2.5488 2.5487a12.4388 12.4388 0 0 1 2.0429-2.0429l-2.5487-2.5488a4.1697 4.1697 0 0 0 .3867-1.7554c0-2.3107-1.8743-4.1752-4.1752-4.1752-2.3107 0-4.1752 1.8744-4.1752 4.1752-.0099 2.3108 1.8546 4.1852 4.1653 4.1852zM33.7188 16.3239l2.5487-2.5487c1.5372.714 3.4314.4363 4.7008-.843 1.6265-1.6265 1.6265-4.2744 0-5.9008-1.6264-1.6265-4.2743-1.6265-5.9008 0-1.2694 1.2694-1.5471 3.1537-.843 4.7008l-2.1322 2.1322-.4165.4166a13.2662 13.2662 0 0 1 2.043 2.0429zM43.8148 19.825c-1.8942 0-3.4909 1.2595-4.0066 2.9752h-3.4909c.0397.3967.0595.7933.0595 1.2 0 .5752-.0396 1.1305-.119 1.6859h3.7289c.6447 1.4678 2.1124 2.4992 3.8281 2.4992 2.3108 0 4.1752-1.8744 4.1752-4.1752 0-2.3009-1.8644-4.1851-4.1752-4.1851zM38.013 33.8281a4.1683 4.1683 0 0 0-1.7554.3868l-2.5388-2.5389a12.4478 12.4478 0 0 1-2.043 2.043l2.5487 2.5488a4.1693 4.1693 0 0 0-.3867 1.7553c0 2.3108 1.8743 4.1752 4.1752 4.1752 2.3107 0 4.1752-1.8743 4.1752-4.1752 0-2.3206-1.8645-4.195-4.1752-4.195zM14.281 31.676l-2.5389 2.5389a4.1683 4.1683 0 0 0-1.7554-.3868c-2.3107 0-4.1752 1.8744-4.1752 4.1752 0 2.3107 1.8744 4.1752 4.1752 4.1752 2.3108 0 4.1752-1.8744 4.1752-4.1752a4.17 4.17 0 0 0-.3867-1.7554l2.5487-2.5487c-.7537-.5852-1.438-1.2695-2.0429-2.0232zM25.4379 39.8976v-3.6c-.476.0595-.952.0893-1.438.0893-.4859 0-.9719-.0298-1.438-.0893v3.6c-1.5967.5851-2.7372 2.1223-2.7372 3.9273 0 2.3107 1.8744 4.1752 4.1752 4.1752 2.3108 0 4.1752-1.8744 4.1752-4.1752 0-1.8149-1.1405-3.3422-2.7372-3.9273z" fill="#97BF00"/></svg>