<svg width="48" height="46" viewBox="0 0 48 46" fill="none" xmlns="http://www.w3.org/2000/svg"><path d="M35.8157 21.8404c.5306.452 1.3167.4324 1.8179-.0688.4814-.4814.5207-1.2282.1179-1.749l-.0197-.0196c-.0098-.0197-.0295-.0393-.0393-.0492l-3.3015-3.9304c-.1376-.167-.226-.3734-.2359-.5994l-.4814-7.399c-.059-.6878-.6289-1.2184-1.3364-1.2184-.6878 0-1.2479.511-1.3265 1.1792v.0098c0 .0295 0 .059-.0098.0884l-.5306 8.1261c-.0098.0492-.0098.1081-.0098.1572v.0885c-.0099.4913.1768.9826.5502 1.356.0786.0786.1572.1473.2457.2063l4.5592 3.8223z" fill="#00A5EA"/><path d="M32.4554.6165c-6.8193 0-12.6166 4.4118-14.7096 10.5236 1.356.1572 2.6727.452 3.9403.8942 1.6606-4.3333 5.8661-7.4187 10.7693-7.4187 6.3574 0 11.5357 5.1783 11.5357 11.5358 0 5.758-4.235 10.5334-9.7572 11.3981.0884.7468.1375 1.5132.1375 2.2796 0 .5896-.0294 1.1693-.0786 1.7491 7.7036-.9138 13.7073-7.4776 13.7073-15.4268C47.9903 7.5831 41.0236.6164 32.4554.6164z" fill="#00A5EA"/><path d="M29.7826 27.5395l-2.0045-.0098c-.3144-1.641-.9531-3.2328-1.9259-4.6674l1.4248-1.4149c.5109-.511.5207-1.3462.0098-1.8571l-1.4346-1.4346c-.511-.511-1.3462-.5208-1.8571-.0098l-1.4248 1.4149c-1.4346-.9826-3.0166-1.6311-4.6575-1.9554l.0098-2.0045c0-.7271-.5797-1.3167-1.3068-1.3167l-2.0242-.0098c-.7271 0-1.3167.5797-1.3167 1.3069l-.0098 1.9947a12.4415 12.4415 0 0 0-4.6968 1.916L7.173 18.0967c-.511-.5109-1.3462-.5207-1.8571 0l-1.4346 1.4346c-.511.511-.5208 1.3462-.0099 1.8571l1.3757 1.3855c-.9924 1.4346-1.6508 3.0461-1.975 4.6968l-1.9456-.0098c-.7271 0-1.3167.5797-1.3167 1.3069L0 30.7919c0 .7271.5797 1.3167 1.3069 1.3167l1.9357.0098c.3046 1.6606.9531 3.2819 1.9357 4.7263l-1.3658 1.356c-.511.511-.5208 1.3462-.0098 1.8571l1.4346 1.4346c.511.511 1.3461.5208 1.857 0l1.3855-1.3363a12.4062 12.4062 0 0 0 4.7165 1.9652l-.0098 1.9357c0 .7271.5797 1.3167 1.3068 1.3167l2.0242.0098c.7271 0 1.3167-.5797 1.3167-1.3068l.0098-1.9456c1.6606-.3144 3.2622-.9629 4.7067-1.9554l1.3756 1.3855c.511.511 1.3462.5208 1.8571.0098l1.4346-1.4346c.511-.5109.5208-1.3461.0098-1.8571l-1.3953-1.3953a12.2188 12.2188 0 0 0 1.9358-4.687l1.9946.0099c.7272 0 1.3167-.5798 1.3167-1.3069l.0099-2.0242c.0098-.7467-.5798-1.3363-1.3069-1.3363zM20.33 34.6241c-2.653 2.6333-6.9372 2.6235-9.5705-.0295-2.6334-2.653-2.6236-6.9372.0294-9.5705 2.6531-2.6334 6.9372-2.6236 9.5706.0294 2.6333 2.6531 2.6137 6.9372-.0295 9.5706z" fill="#00A5EA"/></svg>