<svg width="354" height="236" viewBox="0 0 354 236" fill="none" xmlns="http://www.w3.org/2000/svg"><circle cx="344" cy="12" r="10" fill="#BEA9C3"/><circle cx="226" cy="189" r="47" fill="#D90E30" fill-opacity=".05"/><circle cx="25" cy="25" r="25" fill="#97BF00" fill-opacity=".1"/><circle cx="154.5" cy="104.5" r="80.5" fill="#fff" filter="url(#filter0_d)"/><path fill-rule="evenodd" clip-rule="evenodd" d="M188 69.0366V68h-71.63v1.0366L116 146.042h71.615l.341-69.1568.044-7.8486zm-2.132 1.0959v4.5907h-67.38v-4.5907h67.38zM118.132 143.85v-3.776h67.395v3.791l-67.395-.015zm67.41-5.923h-67.38l.296-61.1306h67.38l-.296 61.1306zm-63.47-66.64h-2.177v2.1176h2.177V71.287zm1.599 0h2.177v2.1176h-2.177V71.287zm5.953 0h-2.177v2.1176h2.177V71.287zm-9.685 9.9662h63.811v21.4578h-63.811V81.2532zm2.118 19.3258h59.531V83.3709h-59.531v17.2081zm28.3 4.072h-29.366v2.118h29.366v-2.118zm-29.366 3.421h29.366v2.118h-29.366v-2.118zm29.366 3.436h-29.366v2.117h29.366v-2.117zm-29.366 3.421h29.366v2.117h-29.366v-2.117zm62.359-10.426h-29.899v2.118h29.899v-2.118zm-29.899 3.421h29.899v2.118h-29.899v-2.118zm29.899 3.421h-29.899v2.118h29.899v-2.118zm-29.899 3.435h29.899v2.118h-29.899v-2.118zm29.188 5.939h-43.478v2.118h43.478v-2.118zm-43.478 3.88h43.478v2.117h-43.478v-2.117zm43.478 3.879h-43.478v2.118h43.478v-2.118zm-46.277-9.151v13.743h-16.423v-13.743h16.423zm-2.118 2.118h-12.172l-.015 9.507h12.187v-9.507z" fill="#FFD2D9"/><defs><filter id="filter0_d" x="54" y="1" width="211" height="211" filterUnits="userSpaceOnUse" color-interpolation-filters="sRGB"><feFlood flood-opacity="0" result="BackgroundImageFix"/><feColorMatrix in="SourceAlpha" values="0 0 0 0 0 0 0 0 0 0 0 0 0 0 0 0 0 0 127 0"/><feOffset dx="5" dy="2"/><feGaussianBlur stdDeviation="12.5"/><feColorMatrix values="0 0 0 0 0 0 0 0 0 0 0 0 0 0 0 0 0 0 0.1 0"/><feBlend in2="BackgroundImageFix" result="effect1_dropShadow"/><feBlend in="SourceGraphic" in2="effect1_dropShadow" result="shape"/></filter></defs></svg>