<svg width="1172" height="760" viewBox="0 0 1172 760" fill="none" xmlns="http://www.w3.org/2000/svg"><path d="M1170.5 194v260h1V194h-1zM21 473.5C9.6804 473.5.5 482.608.5 493.932h1c0-10.767 8.7282-19.432 19.5-19.432v-1zM1170.5 454c0 10.77-8.73 19.5-19.5 19.5v1c11.32 0 20.5-9.178 20.5-20.5h-1zM1151 174.5c10.77 0 19.5 8.73 19.5 19.5h1c0-11.322-9.18-20.5-20.5-20.5v1zm-1130-1c-10.7715 0-19.5-8.674-19.5-19.442h-1C.5 165.382 9.68 174.5 21 174.5v-1zm0 586.325h1130v-1H21v1zm1150.5-20.5v-163h-1v163h1zm-20.5 20.5c11.32 0 20.5-9.178 20.5-20.5h-1c0 10.769-8.73 19.5-19.5 19.5v1zm-1130-1c-10.7715 0-19.5-8.674-19.5-19.442h-1c0 11.324 9.18 20.442 20.5 20.442v-1zM1.5 154.058V0h-1v154.058h1zm0 585.325V493.932h-1v245.451h1zM1151 473.5H21v1h1130v-1zM21 174.5h1130v-1H21v1z" fill="#E3E3E3"/></svg>