<svg xmlns="http://www.w3.org/2000/svg" width="70.4" height="56.2"><path d="M22.5 56C14.9 52 7 48.4.5 42.9c-.7-.6-.6-1.8.4-1.9 8.2-1.1 16.4-2.4 24.7-2.4 1.4 0 2.1 1.7.9 2.3-2.2 1.2-4.4 2.6-6.3 4 16.4 3.4 35.3 8 44.1-7.8 3.8-7 4.4-15.6.2-23C60.1 6.4 50.7 2.9 41.7 1.4c-.9-.2-.9-1.4 0-1.4 20.8.6 33.4 18.1 26.9 34.7-3.2 8.2-9.4 14.4-19.6 16-9.1 1.4-19.1-.9-28.3-3.1 1.5 2.2 2.7 4.6 3.6 7 .5 1-.6 2.1-1.8 1.4zm-5.4-10.2c-.1-.6.3-.9.9-1l.1-.1c.9-1.4 2.1-2.6 3.3-3.6-5.7.3-11.5 1-17.1 1.7 4.9 3.7 10.4 6.4 15.8 9.2-1.1-2-2.4-3.9-3-6.2z" fill="#1e132c"/></svg>