<svg width="20" height="20" viewBox="0 0 20 20" fill="none" xmlns="http://www.w3.org/2000/svg"><g clip-path="url(#clip0)" fill="#fff"><path d="M18.3167 8.383a.8079.8079 0 0 0-.8079.8079v.8137c-.0012 2.1226-.829 4.1176-2.3307 5.6176-1.5007 1.4989-3.4948 2.3243-5.6157 2.3243h-.0047c-4.3817-.0025-7.9444-3.5693-7.942-7.951.0013-2.1226.829-4.1177 2.3308-5.6178 1.5007-1.4989 3.4949-2.3242 5.6157-2.3242h.0047a7.897 7.897 0 0 1 3.2297.688.8078.8078 0 0 0 1.0667-.4092.8078.8078 0 0 0-.4091-1.0667C12.2231.717 10.9155.4385 9.5678.4377h-.0056c-2.552 0-4.9519.9933-6.7576 2.797C.9975 5.0396.0015 7.4403 0 9.9945c-.0014 2.5541.9918 4.956 2.7968 6.7631 1.8051 1.8071 4.2058 2.8031 6.76 2.8046h.0056c2.5519 0 4.9519-.9932 6.7576-2.7969 1.8071-1.805 2.8031-4.2057 2.8046-6.7604v-.814a.808.808 0 0 0-.8079-.808z"/><path d="M19.7632 1.5548a.808.808 0 0 0-1.1425 0l-9.0586 9.0585-2.055-2.055a.8079.8079 0 0 0-1.1425 1.1425l2.6263 2.6263a.8053.8053 0 0 0 .5713.2367.8055.8055 0 0 0 .5713-.2367l9.6297-9.6298a.8079.8079 0 0 0 0-1.1425z"/></g><defs><clipPath id="clip0"><path fill="#fff" d="M0 0h20v20H0z"/></clipPath></defs></svg>