<svg width="17" height="14" viewBox="0 0 17 14" fill="none" xmlns="http://www.w3.org/2000/svg"><path fill-rule="evenodd" clip-rule="evenodd" d="M.85 0h15.3a.85.85 0 0 1 .85.85v11.3333a.85.85 0 0 1-.85.85H.85a.85.85 0 0 1-.85-.85V.85A.85.85 0 0 1 .85 0zm15.3 12.4667a.2833.2833 0 0 0 .2833-.2833V.85A.2833.2833 0 0 0 16.15.5667H.85A.2833.2833 0 0 0 .5667.85v11.3334c0 .1564.1268.2833.2833.2833h15.3zm-.7487-11.267a.283.283 0 0 1 .3991.035.2831.2831 0 0 1-.0348.3991L9.2291 7.1245a1.132 1.132 0 0 1-1.458 0L1.2346 1.6338a.2834.2834 0 0 1 .3644-.434l6.5364 5.491a.5667.5667 0 0 0 .7293 0l6.5366-5.491zm-9.9519 5.886a.2834.2834 0 0 0-.2732.088l-3.9667 4.2499a.2834.2834 0 1 0 .4143.3865l3.9666-4.25a.2833.2833 0 0 0-.141-.4745zm6.1011 0a.2833.2833 0 0 1 .2732.088l3.9667 4.2499a.2834.2834 0 0 1-.4143.3865l-3.9666-4.25a.2832.2832 0 0 1 .141-.4745z" fill="#D90E30"/></svg>