<svg width="17" height="17" viewBox="0 0 17 17" fill="none" xmlns="http://www.w3.org/2000/svg"><path fill-rule="evenodd" clip-rule="evenodd" d="M13.1131 10.8201l3.4408 2.2948a.9994.9994 0 0 1 .3029 1.3475l-.8652 1.4381a2.0279 2.0279 0 0 1-1.2011.9255A5.0188 5.0188 0 0 1 13.459 17c-1.9536 0-4.7959-1.0268-8.6138-4.8447C.0457 7.3549-.3441 4.0965.174 2.2085a2.0297 2.0297 0 0 1 .9255-1.2012L2.5384.143A.999.999 0 0 1 3.885.4461l2.2946 3.441a1.005 1.005 0 0 1-.2187 1.345L4.6732 6.234a.429.429 0 0 0-.1133.5514l.1045.1906c.3445.631.7743 1.418 2.3587 3.0031 1.5845 1.5852 2.3709 2.0141 3.0029 2.3586l.1907.1051a.4283.4283 0 0 0 .5493-.1156l1.0023-1.2888a1.0043 1.0043 0 0 1 1.3448-.2184zm2.3923 4.7905l.8632-1.4389a.4332.4332 0 0 0-.1314-.5845l-3.4405-2.2948a.4362.4362 0 0 0-.5836.0946l-1.002 1.2882a.9915.9915 0 0 1-1.2726.2626l-.186-.1025-.0008-.0004c-.6636-.362-1.4894-.8124-3.1322-2.4551-1.6428-1.6426-2.0932-2.4687-2.4552-3.1327l-.0004-.0007-.1022-.1859a.9916.9916 0 0 1 .2626-1.2726l1.288-1.002a.4361.4361 0 0 0 .0947-.5837L4.6608 2.6329 3.4143.7614A.4334.4334 0 0 0 2.8299.63l-1.4389.8632c-.3268.191-.567.501-.6705.8652C.242 4.1016.6383 7.1464 5.246 11.7545c4.6078 4.608 7.6526 5.0044 9.3954 4.5259a1.4644 1.4644 0 0 0 .864-.6698zm-1.0568-7.96c-.003-2.6588-2.1574-4.8134-4.816-4.8163a.2833.2833 0 1 1 0-.5666c2.9714.0032 5.3793 2.4113 5.3826 5.3829a.2833.2833 0 1 1-.5666 0zM9.6326 4.534c1.7202.002 3.1142 1.396 3.1163 3.1164a.2832.2832 0 1 0 .5665 0c-.0023-2.0332-1.6498-3.6807-3.6828-3.683a.2833.2833 0 1 0 0 .5665zm1.4165 3.117c-.0009-.782-.6346-1.4157-1.4164-1.4166a.2833.2833 0 1 1 0-.5666c1.0946.0012 1.9817.8884 1.983 1.9831a.2833.2833 0 0 1-.5666 0z" fill="#D90E30"/></svg>