<svg width="18" height="20" viewBox="0 0 18 20" fill="none" xmlns="http://www.w3.org/2000/svg"><path fill-rule="evenodd" clip-rule="evenodd" d="M15.748 6.556h.98c.6831 0 1.2388.5557 1.2388 1.2387v3.0112c0 .6831-.5557 1.2388-1.2388 1.2388h-1.0469a6.8207 6.8207 0 0 1-1.2645 1.8774l.51.5099c.3909-.2153.8933-.1578 1.2244.1734.4013.4012.4013 1.0543 0 1.4555a1.0256 1.0256 0 0 1-.7276.3009 1.0264 1.0264 0 0 1-.7278-.3009c-.3311-.3311-.3887-.8335-.1733-1.2245l-.5164-.5163a6.8198 6.8198 0 0 1-4.2532 1.7209v.3872h.0762c.3678 0 .667.2993.667.6671v.2859h1.2388c.6832 0 1.2388.5556 1.2388 1.2388v.0381c0 .4729-.3847.8576-.8576.8576H8.7235a.2859.2859 0 1 1 0-.5718h3.3924a.2861.2861 0 0 0 .2859-.2858V18.62a.668.668 0 0 0-.6671-.6671H7.1989a.6679.6679 0 0 0-.667.6671v.0381c0 .1576.1281.2858.2858.2858h.5717a.2859.2859 0 1 1 0 .5718h-.5717c-.4729 0-.8576-.3847-.8576-.8576V18.62c0-.6832.5556-1.2388 1.2388-1.2388h1.2387v-.2859a.6679.6679 0 0 1 .667-.6671h.0763v-.3872a6.8134 6.8134 0 0 1-4.254-1.72l-.5155.5154c.2153.391.1577.8934-.1734 1.2245a1.0255 1.0255 0 0 1-.7277.3011 1.026 1.026 0 0 1-.7277-.3011c-.4013-.4012-.4013-1.0541 0-1.4554.331-.3311.8335-.3888 1.2244-.1733l.5094-.5094a6.8247 6.8247 0 0 1-1.2637-1.878H2.2056c-.6831 0-1.2388-.5556-1.2388-1.2387V7.6424c0-.6498.4979-1.0864 1.2388-1.0864h.981A6.8017 6.8017 0 0 1 4.372 4.6861l-.3648-.3648a1.0302 1.0302 0 0 1-.4969.1276 1.026 1.026 0 0 1-.7277-.301c-.4013-.4013-.4013-1.0542 0-1.4555.4012-.4012 1.0543-.4012 1.4554 0 .3311.3312.3887.8335.1734 1.2245l.3586.3587a6.8923 6.8923 0 0 1 .8382-.679c1.0599-.728 2.2896-1.1363 3.5727-1.1892v-.3897c-.4288-.1244-.7432-.5203-.7432-.9886C8.4376.4617 8.8994 0 9.4667 0c.5674 0 1.0291.4617 1.0291 1.0292 0 .4682-.3144.8641-.7432.9885v.3897a6.811 6.811 0 0 1 4.4129 1.8661l.3567-.3566c-.2154-.391-.1578-.8933.1733-1.2245.4013-.4012 1.0542-.4012 1.4554 0 .4013.4013.4013 1.0543 0 1.4555a1.0253 1.0253 0 0 1-.7276.301 1.0297 1.0297 0 0 1-.4968-.1276l-.3632.363A6.8359 6.8359 0 0 1 15.748 6.556zM9.9242 17.3813v-.2859A.0954.0954 0 0 0 9.8289 17h-.7242a.0954.0954 0 0 0-.0953.0953v.2859h.9148zM15.4234 2.963a.456.456 0 0 0-.3235.1337.458.458 0 0 0 0 .647.4579.4579 0 0 0 .6469 0 .4579.4579 0 0 0 0-.647.456.456 0 0 0-.3234-.1337zm-2.1726 3.593h1.8707a6.2397 6.2397 0 0 0-4.3287-3.4415c1.1799.837 2.018 2.0055 2.458 3.4415zm-3.4981-.8576a.2858.2858 0 1 1-.5718 0v-2.554c-1.4186.7462-2.3916 1.8909-2.898 3.4116h6.3678c-.5064-1.5207-1.4794-2.6656-2.898-3.4115v2.554zM9.4668.5717a.4579.4579 0 0 0-.4574.4575c0 .2522.2052.4574.4574.4574a.458.458 0 0 0 .4574-.4574.4579.4579 0 0 0-.4574-.4575zm-6.28 2.525a.4582.4582 0 0 0 0 .647.458.458 0 0 0 .647 0 .458.458 0 0 0 0-.647.456.456 0 0 0-.3235-.1337.456.456 0 0 0-.3235.1337zm2.496 3.4594C6.1231 5.119 6.962 3.95 8.143 3.1128c-1.887.404-3.4917 1.6602-4.3313 3.4432h1.8711zm4.0699 5.4887V15.3044c1.3757-.7223 2.3319-1.816 2.849-3.2596h-2.849zm-3.4208 0c.517 1.4436 1.4734 2.5373 2.849 3.2595v-3.2595H6.332zm.7627 2.3761c-.61-.668-1.0695-1.4665-1.3672-2.3761H3.8866a6.2415 6.2415 0 0 0 4.245 3.2872 6.4115 6.4115 0 0 1-1.037-.9111zm-3.9078 1.2358a.4579.4579 0 0 0 .647 0 .458.458 0 0 0 0-.647.4563.4563 0 0 0-.3235-.1337.4564.4564 0 0 0-.3235.1337.4583.4583 0 0 0 0 .647zm12.56 0a.458.458 0 0 0 0-.647.4565.4565 0 0 0-.3235-.1337.4562.4562 0 0 0-.3234.1337.458.458 0 0 0 0 .647.4579.4579 0 0 0 .6469 0zm-3.9078-1.2358a6.4054 6.4054 0 0 1-1.0362.9105 6.2494 6.2494 0 0 0 4.2441-3.2866h-1.8407c-.2977.9096-.7572 1.7081-1.3672 2.3761zm4.889-2.9478a.6678.6678 0 0 0 .667-.667V7.7948a.6678.6678 0 0 0-.667-.667H2.2056c-.1565 0-.667.037-.667.5146v3.1637c0 .3677.2992.667.667.667H16.728zm-5.8436-3.3413a.2858.2858 0 0 1 .5443.1745l-.6277 1.9578a.3623.3623 0 0 1-.3448.2516.3621.3621 0 0 1-.2774-.1295l-.7119-.8484-.712.8484a.3622.3622 0 0 1-.6222-.1221L7.505 8.3063a.2859.2859 0 1 1 .5445-.1746l.5117 1.596.6283-.7488a.3609.3609 0 0 1 .2774-.1296.3609.3609 0 0 1 .2774.1296l.6283.7488.5118-1.5959zm-4.1767-.185a.286.286 0 0 0-.3594.185l-.5118 1.5959-.6283-.7488a.3609.3609 0 0 0-.2774-.1296.3609.3609 0 0 0-.2774.1296l-.6283.7488-.5117-1.596a.2859.2859 0 1 0-.5445.1746l.6277 1.9578a.3622.3622 0 0 0 .6222.1221l.712-.8484.7119.8484a.3622.3622 0 0 0 .6222-.1221l.6277-1.9578a.2859.2859 0 0 0-.1849-.3596zm8.7125.185a.286.286 0 0 1 .5444.1745l-.6278 1.9578a.3623.3623 0 0 1-.3448.2516.3621.3621 0 0 1-.2774-.1295l-.7119-.8484-.712.8484a.3623.3623 0 0 1-.6222-.1221l-.6277-1.9578a.2858.2858 0 1 1 .5445-.1746l.5117 1.596.6284-.7488a.3607.3607 0 0 1 .2773-.1296.3608.3608 0 0 1 .2774.1296l.6284.7488.5117-1.5959z" fill="#D90E30"/></svg>